<?xml version="1.0" encoding="utf-8"?>
<!-- Generator: Adobe Illustrator 27.5.0, SVG Export Plug-In . SVG Version: 6.00 Build 0)  -->
<svg version="1.1" id="Layer_1" xmlns="http://www.w3.org/2000/svg" xmlns:xlink="http://www.w3.org/1999/xlink" x="0px" y="0px"
	 viewBox="0 0 205 265" style="enable-background:new 0 0 205 265;" xml:space="preserve">
<g>
	<g>
		<g>
			<g>
				<g>
					<path style="fill:#512C0A;" d="M59.347,112.563c-0.078-0.066-0.194-0.13-0.302-0.088c-0.228,0.09-0.431,0.232-0.619,0.402
						c-0.002,0.003-0.004,0.004-0.006,0.007c-0.089,0.077-0.17,0.16-0.251,0.251c-2.697,1.756-5.586,3.217-8.153,5.2
						c-1.333,1.032-2.513,2.242-3.857,3.261c-1.44,1.091-2.846,2.229-4.218,3.409c-2.748,2.361-5.313,4.934-7.823,7.547
						c-2.435,2.533-4.911,5.111-7.113,7.85c-1.63,2.029-3.346,4.096-4.831,6.278c-1.31,0.55-2.623,1.035-3.999,1.413
						c-2.455,0.676-4.94,1.223-7.411,1.835c-0.133,0.034-0.26,0.168-0.252,0.315c0.016,0.314,0.108,2.344,0.298,2.847
						c0.343,0.916,1.57,0.434,2.325,0.365c1.794-0.159,3.662-0.337,5.504-0.616c-1.072,2.053-2.072,4.135-2.923,6.31
						c-1.332,3.403-2.411,6.977-3.321,10.513c-0.373,1.454-0.611,2.922-1.007,4.363c-0.254,0.935,4.032,3.348,4.043,3.1
						c0.056-1.327,0.579-2.696,0.941-3.964c0.409-1.438,1.015-2.841,1.553-4.237c1.163-3.036,2.228-6.077,3.613-9.024
						c0.205-0.432,0.419-0.858,0.629-1.284c-0.012,0.314-0.025,0.629-0.036,0.944c-0.07,2.032-0.044,9.198,1.229,9.193
						c0.659-0.007,1.339,0.035,1.996,0.005c0.499-0.022,0.491-0.758,0.547-1.093c0.327-1.928,0.238-4.014,0.318-5.969
						c0.095-2.286,0.028-4.574,0.124-6.859c0.056-1.33,0.107-2.725,0.246-4.092c1.325-2.049,2.773-3.98,4.227-5.956
						c3.517-4.777,7.831-8.953,12.061-13.084c4.213-4.114,8.793-7.505,13.868-10.415c0.077,0.093,0.181,0.123,0.303,0.108
						c0.375-0.044,0.584-0.356,0.735-0.697c0.062-0.034,0.124-0.072,0.186-0.107c0.24-0.132,0.206-0.407,0.052-0.549
						c0.29-0.87,0.431-1.882,0.616-2.771c0.24-1.163,0.407-2.266,0.808-3.395C59.595,113.461,59.707,112.876,59.347,112.563z"/>
					<path style="fill:#331300;" d="M15.401,177.382c-0.462,0-3.207-1.61-4.002-2.65c-0.224-0.295-0.303-0.546-0.241-0.768
						c0.211-0.771,0.381-1.566,0.544-2.334c0.142-0.663,0.287-1.352,0.462-2.027c1.029-3.995,2.118-7.441,3.329-10.538
						c0.719-1.836,1.586-3.73,2.717-5.921c-1.709,0.245-3.429,0.408-5.055,0.551c-0.154,0.014-0.325,0.044-0.505,0.078
						c-0.286,0.05-0.608,0.111-0.907,0.111c-0.591,0-0.98-0.239-1.157-0.708c-0.128-0.343-0.233-1.308-0.31-2.868l-0.003-0.053
						c-0.012-0.248,0.176-0.493,0.433-0.556c0.833-0.207,1.664-0.406,2.497-0.604c1.614-0.384,3.284-0.783,4.91-1.23
						c1.213-0.334,2.454-0.772,3.904-1.376c1.264-1.852,2.699-3.628,4.088-5.348l0.715-0.888c2.213-2.753,4.709-5.352,7.125-7.864
						c2.253-2.344,4.945-5.076,7.84-7.563c1.391-1.198,2.813-2.346,4.228-3.419c0.686-0.519,1.343-1.102,1.977-1.665
						c0.604-0.537,1.228-1.089,1.88-1.592c1.641-1.268,3.434-2.337,5.17-3.371c0.981-0.587,2.002-1.194,2.974-1.827
						c0.077-0.086,0.16-0.166,0.246-0.243c0.239-0.217,0.466-0.363,0.699-0.455c0.213-0.082,0.454,0.052,0.544,0.131
						c0.364,0.315,0.421,0.861,0.169,1.577c-0.309,0.87-0.475,1.72-0.651,2.623c-0.049,0.245-0.097,0.492-0.148,0.74
						c-0.05,0.243-0.097,0.493-0.143,0.746c-0.123,0.648-0.245,1.313-0.439,1.927c0.072,0.116,0.107,0.257,0.09,0.389
						c-0.021,0.179-0.126,0.329-0.293,0.42l-0.119,0.068c-0.149,0.319-0.403,0.706-0.89,0.764c-0.128,0.016-0.248-0.003-0.35-0.058
						c-5.146,2.963-9.62,6.334-13.682,10.298l-0.318,0.31c-4.081,3.985-8.3,8.103-11.716,12.745l-0.52,0.704
						c-1.293,1.753-2.517,3.408-3.67,5.19c-0.122,1.212-0.172,2.448-0.221,3.643l-0.016,0.379c-0.049,1.148-0.056,2.32-0.064,3.451
						c-0.008,1.118-0.014,2.272-0.061,3.408c-0.023,0.564-0.033,1.14-0.041,1.719c-0.023,1.423-0.045,2.893-0.28,4.282
						c-0.009,0.049-0.016,0.107-0.022,0.172c-0.046,0.38-0.128,1.09-0.751,1.118c-0.404,0.019-0.817,0.01-1.228,0.002
						c-0.223-0.003-0.447-0.009-0.668-0.009l-0.107,0.002c-0.122,0-0.297-0.038-0.469-0.217c-1.135-1.175-1.032-7.884-1.004-9.05
						c-0.047,0.094-0.09,0.186-0.135,0.278c-1.073,2.28-1.968,4.667-2.837,6.973c-0.255,0.678-0.511,1.355-0.771,2.036
						c-0.131,0.343-0.268,0.688-0.405,1.032c-0.41,1.038-0.836,2.11-1.142,3.184c-0.08,0.283-0.17,0.572-0.26,0.863
						c-0.309,1.004-0.63,2.046-0.669,3.046l-0.01,0.229L15.401,177.382z M19.068,152.533l-0.218,0.417
						c-1.229,2.355-2.156,4.351-2.911,6.286c-1.205,3.082-2.287,6.511-3.311,10.486c-0.171,0.666-0.316,1.348-0.457,2.005
						c-0.166,0.777-0.337,1.578-0.551,2.362c-0.01,0.038,0.009,0.124,0.095,0.259c0.557,0.863,2.77,2.157,3.497,2.482
						c0.085-0.969,0.384-1.939,0.674-2.882c0.088-0.289,0.176-0.573,0.254-0.852c0.313-1.096,0.743-2.182,1.158-3.23
						c0.135-0.344,0.271-0.686,0.402-1.029c0.262-0.675,0.515-1.353,0.771-2.031c0.87-2.315,1.772-4.713,2.853-7.008
						c0.162-0.347,0.332-0.69,0.503-1.033l0.625-1.265l-0.052,1.267c-0.01,0.266-0.022,0.534-0.029,0.8
						c-0.085,2.413,0.019,7.996,0.865,8.875c0.068,0.068,0.108,0.068,0.123,0.068h0.111c0.223,0,0.451,0.006,0.677,0.009
						c0.401,0.008,0.804,0.017,1.199-0.002c0.181-0.008,0.246-0.263,0.296-0.698c0.009-0.072,0.017-0.137,0.026-0.195
						c0.229-1.352,0.251-2.805,0.276-4.21c0.008-0.583,0.019-1.161,0.041-1.731c0.047-1.129,0.053-2.278,0.059-3.39
						c0.008-1.137,0.014-2.313,0.064-3.47l0.016-0.379c0.05-1.221,0.102-2.482,0.23-3.73l0.006-0.056l0.032-0.048
						c1.171-1.811,2.465-3.565,3.716-5.262l0.521-0.706c3.438-4.672,7.673-8.805,11.767-12.803l0.316-0.309
						c4.127-4.03,8.678-7.446,13.918-10.451l0.174-0.1l0.129,0.156c0.009,0.012,0.022,0.024,0.062,0.024
						c0.244-0.028,0.413-0.2,0.57-0.558l0.033-0.075l0.257-0.147c0.047-0.024,0.049-0.048,0.051-0.058
						c0.004-0.034-0.016-0.078-0.046-0.106l-0.113-0.104l0.049-0.147c0.205-0.615,0.334-1.313,0.46-1.987
						c0.049-0.258,0.096-0.51,0.147-0.755c0.052-0.246,0.101-0.494,0.149-0.736c0.177-0.919,0.349-1.787,0.668-2.691
						c0.104-0.293,0.238-0.822-0.033-1.057c-0.034-0.03-0.062-0.041-0.071-0.044c-0.164,0.068-0.342,0.186-0.529,0.356
						c-0.087,0.078-0.165,0.155-0.24,0.238l-0.048,0.04c-0.99,0.646-2.019,1.26-3.016,1.855c-1.723,1.026-3.504,2.087-5.12,3.337
						c-0.64,0.493-1.257,1.042-1.855,1.572c-0.642,0.571-1.306,1.159-2.005,1.69c-1.408,1.067-2.824,2.209-4.205,3.398
						c-2.882,2.477-5.564,5.198-7.811,7.534c-2.407,2.505-4.896,5.094-7.096,7.831l-0.719,0.892
						c-1.396,1.73-2.839,3.517-4.101,5.373l-0.04,0.057l-0.067,0.029c-1.495,0.626-2.775,1.079-4.026,1.424
						c-1.632,0.449-3.306,0.848-4.924,1.233c-0.831,0.199-1.664,0.4-2.495,0.604c-0.038,0.01-0.07,0.053-0.07,0.068l0.002,0.055
						c0.101,2.055,0.23,2.589,0.28,2.725c0.104,0.277,0.318,0.397,0.71,0.397c0.257,0,0.543-0.052,0.823-0.102
						c0.194-0.036,0.383-0.07,0.547-0.084c1.764-0.159,3.642-0.336,5.49-0.615L19.068,152.533z"/>
				</g>
				<g>
					<path style="fill:#331300;" d="M26.817,144.57c-3.372,3.789-6.488,7.747-8.459,12.474c-1.057,2.533-2.223,4.998-3.129,7.593
						c-0.989,2.829-1.63,5.715-2.266,8.632c-0.025,0.109,0.134,0.159,0.163,0.049c0.703-2.59,1.309-5.188,2.135-7.745
						c0.805-2.5,1.895-4.875,2.958-7.273c2.219-5.014,5.198-9.403,8.746-13.577C27.052,144.621,26.911,144.466,26.817,144.57z"/>
					<path style="fill:#331300;" d="M27.694,143.375c-0.305,0-0.321,0.473-0.014,0.473
						C27.984,143.848,27.999,143.375,27.694,143.375z"/>
					<path style="fill:#331300;" d="M28.649,142.341c-0.305,0-0.319,0.472-0.015,0.472
						C28.939,142.813,28.953,142.341,28.649,142.341z"/>
					<path style="fill:#331300;" d="M31.19,139.973c-0.078,0-0.08,0.119-0.003,0.119C31.264,140.092,31.266,139.973,31.19,139.973z"
						/>
					<path style="fill:#331300;" d="M26.54,150.899c-0.651,2.326-0.907,4.649-1.136,7.044c-0.126,1.327-0.263,2.653-0.36,3.982
						c-0.103,1.456-0.031,2.996-0.269,4.433c-0.01,0.06,0.084,0.09,0.095,0.028c0.402-2.318,0.404-4.758,0.638-7.102
						c0.284-2.819,0.65-5.548,1.258-8.315C26.798,150.823,26.582,150.752,26.54,150.899z"/>
					<path style="fill:#331300;" d="M35.959,136.362c-3.092,3.325-6.263,6.561-8.904,10.274c-1.161,1.632-2.12,3.192-2.639,5.139
						c-0.563,2.104-0.9,4.384-0.864,6.557c0.003,0.1,0.148,0.105,0.153,0.006c0.109-2.171,0.568-4.338,1.125-6.436
						c0.544-2.043,1.671-3.678,2.878-5.379c1.306-1.849,2.83-3.511,4.264-5.258c1.335-1.628,2.918-3.06,4.176-4.749
						C36.228,136.404,36.053,136.263,35.959,136.362z"/>
					<path style="fill:#331300;" d="M18.101,148.718c-1.706,0.517-3.34,1.231-5.01,1.846c-0.159,0.06-0.102,0.317,0.064,0.262
						c1.688-0.557,3.358-1.178,5.019-1.811C18.353,148.946,18.295,148.657,18.101,148.718z"/>
					<path style="fill:#331300;" d="M17.711,150.338c-0.923,0.291-1.943,0.699-2.911,0.769c-0.186,0.013-0.197,0.299-0.009,0.292
						c0.993-0.049,2.121-0.387,3.008-0.835C17.922,150.501,17.844,150.295,17.711,150.338z"/>
					<path style="fill:#331300;" d="M52.504,118.776c-2.12,1.197-4.216,2.45-6.187,3.882c-2.031,1.476-3.898,3.26-5.74,4.967
						c-3.951,3.659-7.363,7.934-11.045,11.858c-0.086,0.09,0.044,0.23,0.132,0.14c3.558-3.645,6.846-7.58,10.562-11.069
						c1.835-1.721,3.774-3.352,5.7-4.972c2.059-1.735,4.534-2.976,6.76-4.474C52.886,118.974,52.722,118.652,52.504,118.776z"/>
					<path style="fill:#331300;" d="M56.558,117.97c-3.685,2.321-7.172,4.926-10.546,7.674c-3.327,2.708-6.244,5.771-9.246,8.818
						c-0.096,0.099,0.047,0.251,0.147,0.154c2.945-2.908,5.817-5.784,9.042-8.391c3.478-2.812,7.114-5.371,10.797-7.902
						C56.962,118.179,56.78,117.83,56.558,117.97z"/>
					<path style="fill:#331300;" d="M61.265,119.029c-6.814,3.479-13.315,7.664-18.903,12.913c-0.068,0.061,0.026,0.164,0.095,0.102
						c5.756-5.062,12.288-9.019,18.975-12.71C61.629,119.225,61.464,118.927,61.265,119.029z"/>
				</g>
				<path style="opacity:0.3;fill:#512C0A;" d="M13.135,153.455c1.538-0.137,3.129-0.291,4.707-0.507
					c0.934-0.447,1.986-1.142,2.615-1.824c-0.402-0.267-0.853-0.373-1.349-0.32c-0.521,0.023-1.035,0.1-1.539,0.226
					c-1.351,0.34-2.684,0.691-4.06,0.939c-0.725,0.13-1.464,0.252-2.201,0.387c-0.203,0.074-0.407,0.143-0.609,0.22
					c0.034,0.221,0.07,0.408,0.112,0.516C11.153,154.007,12.381,153.524,13.135,153.455z"/>
				<path style="opacity:0.3;fill:#512C0A;" d="M59.347,112.563c-0.078-0.066-0.194-0.13-0.302-0.088
					c-0.228,0.09-0.431,0.232-0.619,0.402c-0.002,0.003-0.004,0.004-0.006,0.007c-0.089,0.077-0.17,0.16-0.251,0.251
					c-2.697,1.756-5.586,3.217-8.153,5.2c-0.368,0.285-0.726,0.587-1.077,0.89c-1.846,4.801-6.279,7.42-10.091,10.757
					c-4.688,4.106-8.89,8.624-12.388,13.792c-3.425,5.058-6.441,10.441-8.976,15.997c-2.286,5.015-4.2,10.256-4.911,15.726
					c1.194,0.906,2.852,1.781,2.858,1.628c0.056-1.327,0.579-2.696,0.941-3.964c0.409-1.438,1.015-2.841,1.553-4.237
					c1.163-3.036,2.228-6.077,3.613-9.024c0.205-0.432,0.419-0.858,0.629-1.284c-0.012,0.314-0.025,0.629-0.036,0.944
					c-0.07,2.032-0.044,9.198,1.229,9.193c0.068-0.003,0.14,0,0.211,0c0.2-2.114,0.28-4.222,0.258-6.383
					c-0.028-2.611-0.222-5.555,0.32-8.122c0.338-1.598,1.324-2.492,2.477-3.558c1.314-2.03,2.749-3.942,4.191-5.901
					c3.517-4.777,7.831-8.953,12.061-13.084c4.213-4.114,8.793-7.505,13.868-10.415c0.077,0.093,0.181,0.123,0.303,0.108
					c0.375-0.044,0.584-0.356,0.735-0.697c0.062-0.034,0.124-0.072,0.186-0.107c0.24-0.132,0.206-0.407,0.052-0.549
					c0.29-0.87,0.431-1.882,0.616-2.771c0.24-1.163,0.407-2.266,0.808-3.395C59.595,113.461,59.707,112.876,59.347,112.563z"/>
			</g>
			<g>
				<g>
					<g>
						<path style="fill:#EFEFEF;" d="M172.809,234.267c-0.693-0.597-1.475-0.283-2.219,0.046c-0.277,0.028-0.556,0.074-0.826,0.129
							c-0.376,0.076-0.805,0.408-1.041,0.691c-0.37,0.445-0.21,1.002-0.124,1.526c0.133,0.836,2.055,0.968,2.681,0.967
							c0.849-0.003,2.21,0.197,2.523-0.829C174.067,235.932,173.431,234.805,172.809,234.267z"/>
					</g>
					<g>
						<path style="fill:#F2F2F2;" d="M149.413,202.274c-0.719-8.791-3.009-17.753-9.191-24.18
							c-9.486-9.865-27.159-1.538-38.765-1.61c-39.045-0.251-34.543-13.454-51.168-6.715c-7.477,3.031-17.301,19.049-19.454,30.009
							c-1.87,9.505-2.925,22.439,2.723,30.837c10.641,15.816,35.971,16.089,52.589,16.59c18.139,0.546,37.489-0.194,53.65-9.713
							c4.183-2.465,8.606-10.273,9.629-15.048c1.027-4.802,0.349-10.158,0.245-15.035C149.633,205.719,149.553,204,149.413,202.274z
							"/>
					</g>
					<path style="fill:#E5E5E5;" d="M38.103,198.019c3.372-3.176,7.132-6.75,11.333-8.803c3.958-1.935,8.065-1.815,12.052,0.037
						c2.341,1.087,4.499,2.507,6.822,3.628c2.667,1.289,5.476,2.265,8.348,2.996c2.913,0.739,5.878,1.257,8.777,2.049
						c2.656,0.728,5.285,1.552,7.936,2.296c5.41,1.517,11.134,2.727,16.699,1.212c4.552-1.241,8.153-3.804,11.561-6.962
						c4.769-4.418,10.268-10.467,17.467-9.482c2.87,0.392,5.446,1.602,7.482,3.534c-1.425-3.848-3.459-7.418-6.355-10.43
						c-9.486-9.865-27.159-1.538-38.765-1.61c-39.045-0.251-34.543-13.454-51.168-6.715c-7.477,3.031-17.301,19.049-19.454,30.009
						c-0.468,2.372-0.883,4.955-1.155,7.63C32.218,204.057,35.032,200.911,38.103,198.019z"/>
					<path style="fill:#E5E5E5;" d="M53.905,172.117c1.858,1.342,3.84,2.755,5.433,4.405c1.92,1.989,3.447,3.748,6.269,4.412
						c2.177,0.513,3.656,1.395,5.247,2.936c2.167,2.096,4.267,2.554,7.203,2.424c1.815-0.083,3.886-0.273,5.586,0.533
						c2.057,0.973,4.2,1.647,6.451,2.007c2.569,0.416,5.168,0.58,7.772,0.604c2.58,0.026,5.245,0.148,7.78-0.398
						c2.451-0.526,4.8-0.941,7.296-1.166c3.162-0.283,5.89-1.415,8.736-2.771c4.546-2.17,8.391-4.532,11.374-8.714
						c0.465-0.654,0.904-1.326,1.326-2.003c-9.816-3.421-23.404,2.159-32.922,2.099c-39.045-0.251-34.543-13.454-51.168-6.715
						c-0.346,0.141-0.697,0.317-1.05,0.509C50.966,170.329,52.457,171.074,53.905,172.117z"/>
					<path style="fill:#E5E5E5;" d="M145.241,220.977c-1.844,1.131-2.919,2.362-4.193,4.066c-0.73,0.977-1.54,1.795-2.671,2.298
						c-3.124,1.387-6.234,2.782-8.527,5.442c-1.943,2.26-2.585,5.315-5.246,6.966c-2.072,1.287-4.452,1.974-6.869,2.254
						c-2.401,0.278-4.806,0.072-7.21,0.284c-2.767,0.245-5.484,0.774-8.218,1.25c-1.727,0.299-3.881,0.972-5.588,0.216
						c-1.413-0.624-2.263-1.875-3.52-2.711c-2.604-1.735-5.238-0.547-7.62,1.009c-1.346,0.876-2.575,2.244-4.286,2.061
						c-0.967-0.105-1.883-0.674-2.739-1.091c-1.186-0.577-2.424-0.989-3.688-1.359c-0.899-0.263-1.814-0.508-2.678-0.875
						c-1.189-0.503-2.332-1.6-3.552-1.923c-1.938-0.513-4.402,0.12-6.047-1.315c-1.179-1.03-1.818-2.462-2.318-3.917
						c-1.418-4.139-3.288-8.924-8.618-8.336c-2.755,0.304-5.701,1.446-7.932,3.1c-1.161,0.86-2.8,2.402-4.376,2.344
						c-0.854-0.031-1.462-0.311-2.149-0.804c-1.349-0.965-2.197-1.594-4.061-1.149c-0.198,0.049-0.393,0.098-0.587,0.144
						c0.312,0.578,0.646,1.141,1.012,1.683c10.641,15.816,35.971,16.089,52.589,16.59c18.139,0.546,37.489-0.194,53.65-9.713
						c4.183-2.465,8.606-10.273,9.629-15.048c0.688-3.214,0.61-6.673,0.453-10.073C149.46,215.839,148.323,219.083,145.241,220.977z
						"/>
					<g>
						<path style="fill:#F2F2F2;" d="M176.097,237.191c-1.606-0.357-3.243-0.388-4.837-0.836c-1.694-0.478-3.414-1.021-5.169-1.256
							c-1.822-0.246-3.696-0.343-5.548-0.541c-0.338-0.196-0.676-0.374-0.989-0.531c-3.26-1.646-6.555-2.68-10.089-3.569
							c-3.35-0.84-5.446,0.692-7.904,2.807c-1.28,1.102-2.406,2.372-3.659,3.506c-1.883,1.698-4.45,2.667-6.795,3.524
							c-1.667,0.61-3.78,0.079-5.546,0.622c-1.908,0.586-3.63,1.562-5.585,2.073c-4.714,1.233-9.647,0.13-14.406,0.995
							c-6.379,1.154-12.984,3.256-19.536,2.371c-0.696-0.094-1.382-0.204-2.066-0.318c-0.447-0.145-0.893-0.295-1.351-0.465
							c-3.889-1.442-7.641-3.244-11.75-3.894c-1.847-0.292-3.996,0.423-5.772,0.798c-2.633,0.557-4.38-1.337-6.866-1.529
							c-1.121-0.089-2.208,0.046-3.327,0.024c-1.066-0.022-2.375-0.766-3.34-1.165c-1.213-0.501-2.211-0.856-3.334-1.078
							c-1.18-0.621-2.321-1.277-3.401-1.953c-2.558-1.604-5.437-3.128-8.312-4.065c-1.315-0.426-2.868-0.321-4.254-0.402
							c-2.676,0.66-5.192,1.008-7.994,0.968c-3.157-0.041-6.267-0.158-9.2,1.222c-1.019,0.48-1.973,1.047-2.883,1.677
							c-0.736,0.792-1.384,1.65-1.912,2.504c-1.057,1.701-1.514,3.325-0.111,4.934c1.676,1.921,5.276,2.628,7.639,2.88
							c2.875,0.308,5.83,0.102,8.672-0.381c1.975-0.337,4.795-0.306,6.393,1.118c0.741,0.663,0.821,2.245,1.578,3.091
							c1.391,1.561,4.124,2.125,6.069,2.413c3.888,0.572,7.493,0.024,11.139,1.996c12.142,6.569,25.831,3.007,38.893,4.569
							c3.172,0.38,6.276-0.141,9.424-0.417c3.082-0.274,6.163-0.349,9.256-0.351c3.433-0.003,6.849-0.415,10.279-0.504
							c1.349-0.035,2.829-0.632,4.122-0.986c2.072-0.569,4.19-0.687,6.324-0.73c1.311-0.026,2.455-0.331,3.716-0.669
							c1.227-0.327,2.488-0.285,3.559-1.032c1.199-0.827,3.288-2.747,2.314-4.385c-1.192-2.003,2.165-1.92,3.244-1.928
							c1.448-0.012,2.847-0.105,4.299-0.022c3.255,0.185,6.766-0.012,10.01-0.298c3.025-0.269,6.031-1.09,8.909-2.02
							c3.198-1.031,6.48-2.033,9.436-3.647c1.077-0.589,4.556-1.777,4.345-3.499C179.53,236.76,177.635,237.534,176.097,237.191z"/>
					</g>
					<path style="fill:#E5E5E5;" d="M32.009,234.173c0.136-1.581-2.545-1.387-5.466-0.733c-0.008,0.014-0.012,0.03-0.024,0.044
						c-0.915,1.025-4.999,6.276-1.145,6.183c2.04-0.048,4.043-0.543,6.008-1.044c0.216-0.056,0.633-0.201,1.118-0.349
						c-0.071-0.016-0.136-0.036-0.213-0.05c-0.475-0.08-0.274-0.798,0.196-0.72c0.431,0.073,0.887,0.209,1.254,0.455
						c0.671-0.124,1.286-0.134,1.566,0.165c0.292,0.313,0.394,0.766,0.418,1.265c0.512-1.497,1.125-2.963,2.011-4.269
						c0.362-0.53,0.761-1.024,1.173-1.499c-0.791-0.341-1.592-0.65-2.391-0.911c-1.315-0.426-2.868-0.321-4.254-0.402
						c-0.181,0.044-0.359,0.084-0.537,0.126c0.688,0.291,1.109,0.828,1.033,1.74C32.715,234.648,31.969,234.653,32.009,234.173z"/>
					<path style="fill:#E5E5E5;" d="M70.866,241.678c-1.847-0.292-3.996,0.423-5.772,0.798c-2.633,0.557-4.38-1.337-6.866-1.529
						c-1.121-0.089-2.208,0.046-3.327,0.024c-1.066-0.022-2.375-0.766-3.34-1.165c-1.213-0.501-2.211-0.856-3.334-1.078
						c-1.18-0.621-2.321-1.277-3.401-1.953c-1.639-1.028-3.412-2.021-5.23-2.849c-0.558,0.626-1.078,1.287-1.51,2.038
						c-0.997,1.72-1.65,3.559-2.224,5.447c0.754,0.387,1.437,0.9,1.986,1.548c0.641,0.76,0.465,1.496,0.257,2.22
						c0.084,0.058,0.167,0.116,0.264,0.166c1.581,0.824,2.793,0.497,4.442,0.18c0.587-0.114,1.012-0.154,1.594,0
						c0.963,0.253,1.527,1.272,2.626,1.436c1.541,0.234,3.051,0,4.557-0.358c1.893-0.449,3.764-1.011,5.662-1.44
						c0.451-0.273,0.931-0.471,1.423-0.506c1.939-0.134,3.37,1.646,5.412,0.839c1.731-0.686,3.023-2.134,4.766-2.782
						c1.608-0.599,3.382-0.82,5.055-0.301c0.4,0.124,0.793,0.227,1.186,0.319C73.712,242.282,72.312,241.907,70.866,241.678z"/>
					<path style="fill:#E5E5E5;" d="M178.42,237.359c0.072,0.874-0.304,1.502-1.038,2.091c-1.086,0.872-2.707,1.627-3.973,2.198
						c-1.921,0.868-3.924,1.291-6.005,1.585c-2.571,0.358-4.993,0.816-7.434,1.72c-1.696,0.628-3.442,1.357-5.271,1.47
						c-2.361,0.148-4.787-0.241-7.138-0.445c-2.152-0.185-4.313-0.39-6.435-0.815c-1.562-0.315-3.125-0.669-4.712-0.826
						c-1.281-0.126-3.875-0.533-4.809,0.656c-1.136,1.443,4.061,3.294,4.712,4.549c1.105,2.13-0.856,3.956-2.722,4.656
						c-3.109,1.165-6.593,1.315-9.88,1.352c-2.35,0.023-4.657-0.624-6.995-0.56c-2.505,0.07-4.938,0.88-7.444,0.903
						c-5.634,0.047-11.18,0.45-16.799,0.839c-5.648,0.39-11.146-0.681-16.735-1.263c-5.25-0.546-10.765-0.81-15.747-2.703
						c-2.703-1.027-5.729-0.928-8.579-1.076c-3.152-0.163-6.456-0.267-9.504-1.173c-2.046-0.608-4.181-1.609-4.795-3.83
						c-0.197-0.709,0.354-1.215,0.455-1.859c0.281-1.773-1.974-2.933-3.328-3.274c-2.544-0.642-4.591,1.236-7.015,1.574
						c-2.844,0.395-6.114,0.367-8.839-0.652c-1.919-0.715-4.91-2.853-3.592-5.344c0.644-1.215,1.927-1.642,3.188-1.973
						c2.073-0.543,4.085-1.236,6.124-1.886c-3.102-0.044-6.158-0.133-9.044,1.222c-1.019,0.48-1.973,1.047-2.883,1.677
						c-0.736,0.792-1.384,1.65-1.912,2.504c-1.057,1.701-1.514,3.325-0.111,4.934c1.676,1.921,5.276,2.628,7.639,2.88
						c2.875,0.308,5.83,0.102,8.672-0.381c1.975-0.337,4.795-0.306,6.393,1.118c0.741,0.663,0.821,2.245,1.578,3.091
						c1.391,1.561,4.124,2.125,6.069,2.413c3.888,0.572,7.493,0.024,11.139,1.996c12.142,6.569,25.831,3.007,38.893,4.569
						c3.172,0.38,6.276-0.141,9.424-0.417c3.082-0.274,6.163-0.349,9.256-0.351c3.433-0.003,6.849-0.415,10.279-0.504
						c1.349-0.035,2.829-0.632,4.122-0.986c2.072-0.569,4.19-0.687,6.324-0.73c1.311-0.026,2.455-0.331,3.716-0.669
						c1.227-0.327,2.488-0.285,3.559-1.032c1.199-0.827,3.288-2.747,2.314-4.385c-1.192-2.003,2.165-1.92,3.244-1.928
						c1.448-0.012,2.847-0.105,4.299-0.022c3.255,0.185,6.766-0.012,10.01-0.298c3.025-0.269,6.031-1.09,8.909-2.02
						c3.198-1.031,6.48-2.033,9.436-3.647c1.077-0.589,4.556-1.777,4.345-3.499C179.654,237.783,179.117,237.464,178.42,237.359z"/>
					<path style="fill:#E5E5E5;" d="M101.898,258.283c-2.841-0.191-5.555,0.295-8.372,0.291c-2.991-0.004-5.885-0.615-8.845-0.958
						c-2.843-0.329-5.678-0.251-8.533-0.141c-5.893,0.227-11.241-0.014-16.837-1.999c-2.8-0.992-5.54-1.903-8.486-2.35
						c-2.493-0.38-5.003-0.436-7.503-0.736c-3.828-0.456-7.615-2.038-8.992-5.942c-0.55-1.551-0.997-3.13-3.083-2.595
						c-0.934,0.24-1.858,0.538-2.813,0.688c-2.503,0.391-5.088,0.516-7.616,0.688c-1.006,0.068-2.107,0.05-3.23-0.061
						c-2.202,0.368-4.501,0.302-6.385-0.659c1.858,1.254,4.645,1.772,6.596,1.981c2.875,0.308,5.83,0.102,8.672-0.381
						c1.975-0.337,4.795-0.306,6.393,1.118c0.741,0.663,0.821,2.245,1.578,3.091c1.391,1.561,4.124,2.125,6.069,2.413
						c3.888,0.572,7.493,0.024,11.139,1.996c12.142,6.569,25.831,3.007,38.893,4.569c3.172,0.38,6.276-0.141,9.424-0.417
						c1.783-0.157,3.567-0.246,5.351-0.295C104.18,258.471,103.041,258.359,101.898,258.283z"/>
					<path style="fill:#E5E5E5;" d="M165.089,245.473c-2.967,0.802-5.955,1.621-9.042,1.758c-3.232,0.145-6.485,0.012-9.719-0.024
						c-1.393-0.014-2.937,0.061-4.306-0.258c-1.404-0.329-2.704-0.967-4.101-1.305c-0.059-0.016-0.118-0.027-0.177-0.04
						c-0.611,0.034-1.152,0.152-1.487,0.35c-1.269,0.756,0.751,2.32,1.194,3.044c0.462,0.759,0.977,1.735,0.75,2.663
						c-0.649,2.663-3.416,3.276-5.735,3.804c-1.099,0.251-2.186,0.553-3.268,0.862c0.251-0.009,0.499-0.014,0.749-0.018
						c1.311-0.026,2.455-0.331,3.716-0.669c1.227-0.327,2.488-0.285,3.559-1.032c1.199-0.827,3.288-2.747,2.314-4.385
						c-1.192-2.003,2.165-1.92,3.244-1.928c1.448-0.012,2.847-0.105,4.299-0.022c3.255,0.185,6.766-0.012,10.01-0.298
						c3.025-0.269,6.031-1.09,8.909-2.02c2.434-0.785,4.914-1.554,7.267-2.589C170.579,244.193,167.788,244.743,165.089,245.473z"/>
					<g>
						<path style="fill:#E5E5E5;" d="M173.525,236.045c-0.691-0.598-1.474-0.282-2.217,0.046c-0.272,0.027-0.545,0.073-0.81,0.125
							c-0.01-0.123-0.023-0.249-0.043-0.387c-0.274-1.997-2.376-4.073-3.978-5.174c-2.488-1.708-4.413,0.463-6.132,2.134
							c-1.105,1.074-2.424,1.961-0.901,3.284c0.747,0.648,1.886,0.769,2.794,1.053c1.554,0.492,3.085,0.882,4.699,1.118
							c0.753,0.109,1.644,0.208,2.356,0.07c0.008,0.042,0.015,0.083,0.021,0.124c0.134,0.835,2.055,0.968,2.682,0.966
							c0.849-0.003,2.21,0.197,2.523-0.828C174.782,237.709,174.147,236.583,173.525,236.045z"/>
						<path style="fill:#E5E5E5;" d="M148.26,225.822c-1.818-0.257-3.575,0.743-4.976,1.812c-1.129,0.862-1.758,1.883-1.926,3.089
							c-0.213,0.001-0.428,0.015-0.647,0.041c-1.766,0.012-3.62,0.684-5.036,1.478c-3.103,1.736-12.182,10.264-5.24,12.843
							c3.274,1.217,6.568,0.708,9.803-0.385c2.264-0.764,5.625-1.305,6.638-3.928c0.612-1.585,0.616-3.033,0.205-4.413
							c0.367,0.276,0.76,0.49,1.175,0.518c1.963,0.126,3.996-1.083,5.372-2.395c1.59-1.511-0.226-3.38-1.007-4.733
							C151.771,228.27,150.095,226.082,148.26,225.822z"/>
					</g>
					<g>
						<path style="fill:#F2F2F2;" d="M113.611,249.685c-0.344-1.096-1.361-2.121-2.602-2.078c-0.328,0.012-0.619,0.077-0.891,0.165
							c-1.01-0.032-2.043,0.574-2.65,1.336c-0.582,0.73-1.782,2.389-1.512,3.408c0.337,1.284,1.946,1.575,3.084,1.679
							c1.369,0.126,2.653-0.525,3.684-1.375C113.804,251.931,114.033,251.027,113.611,249.685z"/>
					</g>
					<g>
						<path style="fill:#F2F2F2;" d="M91.234,243.088c-0.871-1.586-2.243-2.26-3.781-1.164c-0.889,0.632-2.118,1.762-2.423,2.947
							c-0.297,0.365-0.488,0.74-0.457,1.078c0.029,0.303,0.159,0.557,0.471,0.656c0.287,0.09,0.62,0.103,0.957,0.083
							c0.281,0.086,0.59,0.092,0.919,0.092c0.841-0.002,1.799-0.027,2.638-0.116c0.462-0.05,0.831-0.209,1.106-0.437
							C91.9,245.733,91.854,244.214,91.234,243.088z"/>
					</g>
					<g>
						<path style="fill:#F2F2F2;" d="M68.059,241.049c-0.723-1.13-2.741-1.811-3.9-2.35c-0.683-0.319-1.318-0.419-1.906-0.304
							c-0.997,0-1.95,0.517-2.737,1.123c-0.951,0.728-1.035,1.337-0.6,2.395c0.591,1.435,2.516,2.047,3.869,2.279
							C64.103,244.417,69.349,243.062,68.059,241.049z"/>
					</g>
					<g>
						<path style="fill:#F2F2F2;" d="M55.722,232.467c-1.688-2.284-4.103-3.916-6.914-4.317c-3.741-0.535-6.232,1.302-9.083,3.357
							c-0.067,0.048-0.096,0.124-0.096,0.198c-1.481,0.957-2.515,2.427-3.369,4.163c-0.837,1.698-2.6,5.975-0.945,7.726
							c0.633,0.668,1.629,0.73,2.48,0.86c1.721,0.262,3.986,0.69,5.678,0.158c1.729-0.539,3.048,0.47,4.563,1.205
							c1.438,0.694,3.06,0.121,4.524-0.12c2.773-0.461,4.974-2.161,5.169-5.088C57.909,237.897,57.364,234.684,55.722,232.467z"/>
					</g>
					<g>
						<path style="fill:#F2F2F2;" d="M22.025,231.152c-0.288-0.402-0.806-0.957-1.296-1.094c-0.777-0.216-1.296,0.203-1.946,0.616
							c-1.182,0.76-1.899,2.091-2.356,3.403c-0.077,0.227,0.043,0.35,0.199,0.389c0.099,0.211,0.298,0.363,0.578,0.385
							c0.77,0.062,1.64-0.124,2.43-0.154c0.705-0.027,1.646-0.036,2.185-0.561c0.457-0.443,0.993-0.734,1.024-1.432
							C22.87,232.136,22.333,231.577,22.025,231.152z"/>
					</g>
					<g>
						<path style="fill:#EFEFEF;" d="M36.273,232.457c-1.509-2.861-4.685-2.825-7.175-1.403c-1.872,1.071-5.24,4.811-4.135,7.158
							c0.108,0.226,0.358,0.349,0.596,0.364c0.953,0.062,1.99-0.234,3.002-0.505c0.653,0.058,1.31,0.086,1.969,0.107
							c1.257,0.042,3.304,0.324,4.491-0.251C37.387,236.778,37.355,234.515,36.273,232.457z"/>
					</g>
					<g>
						<path style="fill:#F2F2F2;" d="M169.816,234.602c-0.006-0.036-0.02-0.072-0.028-0.108c-0.011-0.138-0.027-0.285-0.049-0.442
							c-0.274-1.997-2.375-4.073-3.977-5.174c-2.488-1.708-4.414,0.463-6.133,2.133c-1.105,1.075-2.425,1.961-0.901,3.285
							c0.747,0.648,1.887,0.768,2.794,1.053c1.555,0.491,3.085,0.882,4.699,1.117C167.878,236.706,170.205,236.912,169.816,234.602z
							"/>
					</g>
					<g>
						<path style="fill:#EFEFEF;" d="M151.906,227.97c-0.851-1.478-2.527-3.666-4.362-3.927c-1.817-0.257-3.574,0.744-4.976,1.812
							c-1.664,1.269-2.244,2.886-1.857,4.933c0.325,1.72,2.314,1.976,3.828,2.271c0.162,0.118,0.322,0.239,0.48,0.357
							c0.681,0.512,1.542,1.616,2.522,1.681c1.964,0.125,3.997-1.083,5.372-2.396C154.502,231.192,152.687,229.323,151.906,227.97z"
							/>
					</g>
					<g>
						<path style="fill:#F2F2F2;" d="M144.232,230.805c-1.251-1.568-2.667-2.011-4.237-1.819c-1.766,0.013-3.62,0.685-5.035,1.478
							c-3.104,1.737-12.183,10.265-5.241,12.844c3.274,1.217,6.569,0.707,9.803-0.385c2.263-0.764,5.625-1.305,6.638-3.928
							C147.351,235.911,146.256,233.341,144.232,230.805z"/>
					</g>
				</g>
				<g>
					<path style="fill:#F2F2F2;" d="M146.246,130.031c-1.012-8.404-3.61-16.568-9.151-23.181c-2-2.388-4.467-4.598-7.023-6.378
						c-2.811-1.953-6.672-1.969-9.939-2.276c-4.063-0.38-8.095-0.62-12.118-1.357c-3.967-0.726-8.081-1.417-12.115-1.436
						c-4.605-0.018-9.327,0.475-13.923,1.205c-5.538,0.881-12.103,4.22-16.74,7.282c-4.926,3.255-8.79,7.719-11.748,12.799
						c-9.482,16.295-12.847,43.546,3.512,56.785c5.228,4.233,12.273,7.82,18.669,9.873c5.154,1.653,10.514,2.354,15.896,2.687
						c12.312,0.764,27.116,0.821,37.949-5.913c9.283-5.769,13.625-15.971,15.473-26.352
						C146.394,145.87,147.211,138.031,146.246,130.031z"/>
				</g>
				<path style="fill:#E5E5E5;" d="M130.073,100.472c-2.811-1.953-6.672-1.969-9.939-2.276c-4.063-0.38-8.095-0.62-12.118-1.357
					c-3.967-0.726-8.081-1.417-12.115-1.436c-4.605-0.018-9.327,0.475-13.923,1.205c-4.176,0.666-8.93,2.726-13.007,5.013
					c2.803,4.363,8.689,6.23,13.458,7.423c2.904,0.724,7.176,0.962,8.28,4.347c1.6,4.91,0.496,10.694-0.171,15.679
					c-0.768,5.765-1.368,11.605-1.743,17.408c-0.272,4.22-0.578,8.915,1.38,12.823c1.656,3.306,4.621,5.395,8.256,6.047
					c2.684,0.48,5.082,0.077,7.761-0.043c2.165-0.097,3.782,0.501,5.626,1.565c2.347,1.354,4.955,2.703,7.753,2.438
					c1.427-0.134,2.704-0.567,3.865-1.221c0.056-0.114,0.16-0.191,0.303-0.181c1.063-0.643,2.029-1.475,2.921-2.435
					c0.041-0.046,0.088-0.073,0.134-0.093c0.101-0.135,0.283-0.219,0.477-0.123c0.24,0.116,0.488,0.221,0.735,0.32
					c0.639-0.918,1.115-1.909,1.327-2.631c0.988-3.392-0.806-6.799-1.506-10.082c-1.411-6.613-1.315-13.496-1.822-20.215
					c-0.274-3.62-0.535-7.244-0.58-10.876c-0.08-6.521,2.647-11.946,8.474-15.057c0.717-0.382,1.391-0.774,2.025-1.181
					C134.167,103.654,132.15,101.919,130.073,100.472z"/>
				<path style="fill:#E5E5E5;" d="M115.463,104.265c-4.187-0.044-8.278-0.575-12.446-0.798c-3.575-0.191-7.21-0.173-10.792-0.233
					c-3.529-0.058-7.064,0.095-10.592,0.102c-1.886,0.004-3.786,0.03-5.668-0.09c-0.244-0.017-0.632-0.002-0.981-0.056
					c2.595,1.77,5.232,3.555,8.298,4.363c2.516,0.663,5.874,0.76,8.048,2.303c3.615,2.566,3.14,7.332,4.153,11.177
					c0.663,2.524,1.766,4.995,3.827,6.693c2.562,2.109,5.917,3.278,9.204,3.584c3.134,0.292,6.539,0.203,9.479-1.024
					c0.986-0.411,2.036-0.741,3.069-1.109c0.631-5.195,1.171-10.436,3.116-15.268c0.869-2.16,1.982-4.318,3.947-5.683
					c1.8-1.252,3.98-2.138,6.17-2.776c-0.184-0.027-0.361-0.054-0.53-0.078c-2.185-0.332-4.352-0.764-6.566-0.823
					C123.285,104.45,119.379,104.308,115.463,104.265z"/>
				<path style="fill:#E5E5E5;" d="M120.369,182.886c-5.395,0.721-10.91-0.156-16.296-0.58c-2.963-0.232-5.921-0.414-8.887-0.114
					c-2.585,0.265-5.159,0.726-7.756,0.881c-2.463,0.147-4.795-0.083-7.054-0.613c-5.493-0.159-11.1-4.174-15.567-6.648
					c-3.814-2.112-7.464-4.084-10.624-7.164c-2.405-2.344-4.543-4.955-6.163-7.875c1.823,4.887,4.734,9.268,8.979,12.702
					c5.228,4.233,12.273,7.82,18.669,9.873c5.154,1.653,10.514,2.354,15.896,2.687c12.312,0.764,27.116,0.821,37.949-5.913
					c0.989-0.614,1.914-1.283,2.793-1.993C128.714,180.57,124.677,182.311,120.369,182.886z"/>
				<g>
					<g>
						<path style="fill:#F2F2F2;" d="M143.523,46.582c-6.531-16.136-22.619-24.042-39.435-23.21
							c-4.326,0.213-8.948,0.912-13.093,2.201c-12.644,3.925-25.775,13.59-29.938,26.693c-1.086,3.419-1.706,7.613-1.372,11.204
							c1.097,11.796,8.762,21.03,19.489,25.072c11.398,4.297,25.224,5.745,37.329,4.029c5.987-0.848,12.118-2.84,17.024-6.46
							c8.818-6.509,15.2-16.029,12.787-28.709C145.629,53.791,144.936,50.072,143.523,46.582z"/>
					</g>
					<path style="fill:#E5E5E5;" d="M146.315,57.402c-0.685-3.611-1.378-7.33-2.792-10.82c-6.531-16.136-22.619-24.042-39.435-23.21
						c-4.326,0.213-8.948,0.912-13.093,2.201c-3.723,1.154-7.482,2.818-11.048,4.91c-0.332,0.194,3.464,5.1,3.851,5.5
						c1.604,1.658,3.498,3.007,5.471,4.19c5.304,3.178,11.143,5.376,17.125,6.89c5.609,1.419,11.493,1.763,17.024,3.437
						c8.502,2.573,13.913,10.088,14.608,18.809c0.21,2.645,0.186,5.528-0.233,8.155c-0.482,3.014-1.494,5.524-2.909,7.599
						C142.985,78.596,148.601,69.419,146.315,57.402z"/>
					<path style="fill:#E5E5E5;" d="M134.29,52.83c2.858,3.612,3.372,8.277,4.625,12.558c0.583,1.996,1.39,3.806,2.502,5.56
						c0.258,0.409,2.604,3.319,2.417,3.678c2.605-4.903,3.734-10.636,2.481-17.224c-0.685-3.611-1.378-7.33-2.792-10.82
						c-6.531-16.136-22.619-24.042-39.435-23.21c-4.326,0.213-8.948,0.912-13.093,2.201c-3.13,0.972-6.29,2.297-9.335,3.939
						c8.167,11.862,24.508,15.075,37.937,17.392c3.28,0.566,6.79,0.789,9.869,2.146C131.457,49.926,133.033,51.242,134.29,52.83z"/>
				</g>
				<g>
					<g>
						<path style="fill:#E50702;" d="M160.026,24.165c-0.177-0.479-0.377-0.948-0.595-1.412c-0.953-2.029-2.412-4.49-4.091-6.007
							c-3.204-2.898-7.681-4.188-11.915-4.458c-4.114-0.258-8.227,0.081-11.679-2.604c-3.045-2.37-6.223-4.643-10.101-5.35
							c-4.409-0.805-9.085-0.053-13.344,1.16c-3.978,1.129-8.464,2.167-11.949,4.479c-1.75,1.161-3.511,2.797-4.738,4.507
							c-0.586,0.812-1.488,2.499-2.41,2.979c-0.148,0.077-0.303,0.148-0.475,0.205c-0.636,0.21-1.339,0.207-1.988,0.39
							c-0.705,0.195-1.682,0.913-1.452,1.778c0.328,1.216,1.284,1.859,2.289,2.51c2.575,1.666,5.245,2.808,8.076,3.966
							c4.563,1.863,8.6,4.75,12.997,6.939c4.58,2.28,9.879,3.71,15.017,3.696c1.454-0.004,2.929,0.038,4.386-0.032
							c0.28,0.424,0.556,0.851,0.84,1.265c1.984,2.883,4.254,5.508,5.864,8.641c3.326,6.462,3.684,13.78,5.843,20.622
							c0.979,3.104,1.709,6.344,3.712,8.965c2.045,2.679,4.42,5.183,7.01,7.341c0.465,0.387,0.67,0.962,1.193,1.281
							c0.226,0.136,0.545-0.018,0.545-0.292c0-1.303,0.224-2.581,0.24-3.888c0.013-1.483-0.107-2.96-0.274-4.431
							c-0.571-5.055-0.749-10.24,0.176-15.266c0.96-5.23,3.61-9.509,5.514-14.383c1.091-2.794,1.882-5.711,2.338-8.677
							C161.76,33.468,161.688,28.584,160.026,24.165z"/>
					</g>
					<path style="opacity:0.5;fill:#8C0000;" d="M142.633,19.474c-2.139-4.538-6.633-7.094-10.775-9.57
						c-0.066-0.04-0.15,0.054-0.09,0.108c1.675,1.412,3.498,2.656,5.291,3.914c2.161,1.517,3.925,3.463,5.436,5.624
						C142.553,19.631,142.678,19.568,142.633,19.474z"/>
					<path style="opacity:0.5;fill:#8C0000;" d="M129.06,38.064c-1.223-1.599-2.417-3.202-3.94-4.547
						c-0.965-0.85-1.856-1.865-2.657-2.934c0.002-0.022,0.006-0.043-0.002-0.066c-0.159-0.4-0.442-0.726-0.769-1.012
						c-0.3-0.445-0.587-0.895-0.853-1.34c-1.292-2.147-2.156-4.06-2.166-6.615c-0.01-2.637,0.552-4.898,1.948-7.142
						c0.06-0.096-0.072-0.206-0.152-0.125c-3.155,3.087-3.042,9.154-1.003,12.78c0.291,0.519,0.599,1.019,0.92,1.51
						c-0.003,0-0.004-0.003-0.005-0.005c-1.153-0.767-2.098-1.482-2.968-2.569c-0.784-0.979-1.44-2.066-2.019-3.175
						c-0.624-1.189-0.926-2.622-1.645-3.734c-0.059-0.094-0.199-0.017-0.149,0.084c0.287,0.598,0.34,1.337,0.529,1.976
						c0.157,0.528,0.425,1.04,0.639,1.546c0.536,1.263,1.285,2.37,2.047,3.501c1.157,1.714,2.963,2.526,4.516,3.729
						c2.218,3.016,4.924,5.585,7.635,8.229C129.025,38.214,129.109,38.131,129.06,38.064z"/>
					<path style="opacity:0.5;fill:#A30000;" d="M157.238,44.92c-2.62,5.007-5.192,10.252-5.968,15.917
						c-0.471,3.432-0.245,6.673,0.256,10.084c0.204,1.39,0.046,2.779-1.17,3.625c-2.806,1.949-5.408-5.324-5.689-6.844
						c-0.996-5.419-0.315-10.951-0.604-16.422c-0.545-4.173-1.55-8.336-3.672-11.941c-2.592-4.409-6.314-6.799-10.51-9.454
						c-3.276-2.073-6.862-4.372-8.563-8c-0.627-1.342-0.999-3.327-0.5-4.769c0.554-1.599,2.274-3.674,2.047-5.389
						c-0.229-1.732-4.771,2.742-5.2,3.388c-0.547,0.831-1.688,2.839-3.014,2.423c-0.939-0.293-1.772-1.446-2.531,0.05
						c-0.38,0.752-0.67,1.83-1.257,2.442c-2.329,2.43-5.825-2.02-7.524-3.292c-2.011-1.505-4.836-3.368-4.594-6.25
						c0.077-0.888,0.761-1.755,1.604-2.544c-1.412,0.559-2.767,1.212-3.996,2.029c-1.75,1.161-3.511,2.797-4.738,4.507
						c-0.586,0.812-1.488,2.499-2.41,2.979c-0.148,0.077-0.303,0.148-0.475,0.205c-0.636,0.21-1.339,0.207-1.988,0.39
						c-0.705,0.195-1.682,0.913-1.452,1.778c0.328,1.216,1.284,1.859,2.289,2.51c2.575,1.666,5.245,2.808,8.076,3.966
						c4.563,1.863,8.6,4.75,12.997,6.939c4.58,2.28,9.879,3.71,15.017,3.696c1.454-0.004,2.929,0.038,4.386-0.032
						c0.28,0.424,0.556,0.851,0.84,1.265c1.984,2.883,4.254,5.508,5.864,8.641c3.326,6.462,3.684,13.78,5.843,20.622
						c0.979,3.104,1.709,6.344,3.712,8.965c2.045,2.679,4.42,5.183,7.01,7.341c0.465,0.387,0.67,0.962,1.193,1.281
						c0.226,0.136,0.545-0.018,0.545-0.292c0-1.303,0.224-2.581,0.24-3.888c0.013-1.483-0.107-2.96-0.274-4.431
						c-0.571-5.055-0.749-10.24,0.176-15.266c0.96-5.23,3.61-9.509,5.514-14.383c1.091-2.794,1.882-5.711,2.338-8.677
						c0.126-0.834,0.229-1.678,0.3-2.524C160.414,38.795,158.855,41.832,157.238,44.92z"/>
					<path style="opacity:0.5;fill:#A30000;" d="M143.033,72.982c-1.747-4.125-2.763-8.405-3.293-12.845
						c-0.557-4.678-0.76-9.502-2.108-14.044c-1.455-4.887-4.071-8.44-8.17-11.418c-2.707-1.97-5.793-3.881-7.762-6.664
						c-2.253-2.563-3.454-5.897-2.936-9.171c-0.729,1.634-1.115,3.372-1.35,5.424c-0.034,0.304-0.379,0.627-0.692,0.396
						c-0.807-0.59-1.368-1.319-1.79-2.123c0.183,1.004,0.502,2.003,1.025,3.002c0.44,0.838,2.353,2.545,1.599,3.731
						c-1.105,1.734-4.291-0.454-5.415-1.161c-1.722-1.084-3.362-2.33-4.924-3.633c-2.403-2.009-5.117-5.72-8.52-5.695
						c-3.293,0.026-7.114,1.124-9.699-1.233c-0.088,0.04-0.172,0.083-0.27,0.116c-0.636,0.21-1.339,0.207-1.988,0.39
						c-0.705,0.195-1.682,0.913-1.452,1.778c0.328,1.216,1.284,1.859,2.289,2.51c2.575,1.666,5.245,2.808,8.076,3.966
						c4.563,1.863,8.6,4.75,12.997,6.939c4.58,2.28,9.879,3.71,15.017,3.696c1.454-0.004,2.929,0.038,4.386-0.032
						c0.28,0.424,0.556,0.851,0.84,1.265c1.984,2.883,4.254,5.508,5.864,8.641c3.326,6.462,3.684,13.78,5.843,20.622
						c0.979,3.104,1.709,6.344,3.712,8.965c0.371,0.485,0.755,0.963,1.147,1.436C144.521,76.28,143.731,74.624,143.033,72.982z"/>
					<g>
						<path style="fill:#FFE4DC;" d="M134.21,45.562c-1.143-2.465-2.991-4.625-4.627-6.766c-0.996-1.307-1.882-2.656-3.084-3.792
							c-0.382-0.36-0.935-0.97-1.451-1.138c-0.264-0.086-0.479-0.092-0.691-0.076c-0.943-0.261-2.076-0.216-3.002-0.341
							c-2.214-0.295-4.245-0.896-6.277-1.827c-3.498-1.602-6.636-4.05-9.714-6.325c-1.396-1.033-2.636-2.268-4.036-3.3
							c-1.65-1.215-3.259-2.182-5.279-2.622c-1.356-0.298-2.751-0.446-4.083-0.86c-1.396-0.433-2.557-1.248-3.756-2.061
							c-1.644-1.115-2.873-1.401-4.69-0.484c-1.82,0.919-3.45,2.378-4.792,3.884c-1.008,1.135-2.065,2.699-1.706,4.319
							c0.429,1.944,2.047,3.485,3.46,4.78c1.517,1.392,2.94,2.569,4.787,3.523c0.721,0.373,1.463,0.695,2.211,0.992
							c1.525,0.884,3.097,1.699,4.666,2.497c4.078,2.072,8.318,4.263,12.702,5.615c4.577,1.412,9.252,2.817,14.035,3.344
							c1.176,0.13,2.344,0.393,3.521,0.541c1.317,0.166,2.646,0.232,3.959,0.433c2.372,0.365,4.712,0.337,7.112,0.337
							c0.257,0.011,0.493-0.032,0.661-0.212C134.26,45.891,134.288,45.728,134.21,45.562z"/>
					</g>
					<path style="fill:#F4C0B5;" d="M107.726,27.929c-1.742-1.035-3.231-2.132-4.589-3.642c-1.209-1.346-2.45-2.824-3.984-3.806
						c-1.284-0.82-3.001-1.336-4.533-1.38c-1.024-0.029-2.083,0.013-3.106,0.101c-0.822,0.069-1.729,0.328-2.55,0.306
						c-0.046-0.002-0.054,0.063-0.012,0.077c0.61,0.224,1.235,0.126,1.874,0.073c1.019-0.084,2.043-0.02,3.062,0.007
						c1.919,0.05,3.977,0.513,5.474,1.765c1.464,1.221,2.741,2.604,4.044,3.996c1.177,1.257,2.678,2.019,4.226,2.705
						C107.749,28.181,107.83,27.993,107.726,27.929z"/>
					<path style="opacity:0.5;fill:#A30000;" d="M145.607,23.867c-0.095-1.603-0.268-3.263-0.793-4.793
						c-0.3-0.866-0.719-1.765-0.831-2.681c-0.186-1.556,0.294-3.015,1.764-3.746c0.061-0.031,0.129-0.048,0.196-0.074
						c-0.842-0.136-1.685-0.23-2.518-0.285c-3.006-0.188-6.013-0.064-8.758-1.028c2.431,1.861,4.75,3.978,6.56,6.282
						c2.319,2.943,3.634,6.001,4.335,9.205C145.639,25.786,145.666,24.826,145.607,23.867z"/>
					<g>
						<path style="fill:#FFE4DC;" d="M156.784,84.748c-0.577-1.208-2.605-2.13-3.915-1.799c-1.513,0.38-2.877,1.314-2.986,2.995
							c-0.111,1.692,0.612,3.377,2.26,4.071C155.28,91.338,158.163,87.636,156.784,84.748z"/>
						<path style="fill:#E5CECD;" d="M153.468,90.53L153.468,90.53c-0.475,0-0.953-0.097-1.416-0.295
							c-1.615-0.68-2.536-2.329-2.408-4.307c0.102-1.56,1.257-2.73,3.168-3.212c0.198-0.049,0.413-0.074,0.641-0.074
							c1.404,0,3.027,0.916,3.546,2.003c0.595,1.249,0.484,2.737-0.303,3.984C155.944,89.821,154.737,90.53,153.468,90.53z
							 M153.453,83.119c-0.188,0-0.363,0.02-0.523,0.061c-0.998,0.251-2.687,0.946-2.807,2.781
							c-0.091,1.384,0.417,3.118,2.115,3.835c0.404,0.171,0.819,0.257,1.231,0.257l0,0c1.104,0,2.159-0.627,2.823-1.678
							c0.698-1.107,0.801-2.424,0.276-3.523C156.127,83.93,154.673,83.119,153.453,83.119z"/>
					</g>
					<path style="fill:#FFE4DC;" d="M154.059,87.943c-1.482-0.914-2.437-3.006-1.243-4.549c0.172-0.223,0.371-0.385,0.582-0.513
						c-0.186,0.003-0.362,0.025-0.529,0.068c-1.513,0.38-2.877,1.314-2.986,2.995c-0.111,1.692,0.612,3.377,2.26,4.071
						c2.113,0.892,4.106-0.495,4.766-2.379C156.208,88.411,155.074,88.569,154.059,87.943z"/>
					<path style="fill:#FFE4DC;" d="M151.714,88.949c-1.425-1.815-1.115-4.67,0.502-5.795c-1.234,0.47-2.24,1.36-2.333,2.791
						c-0.111,1.692,0.612,3.377,2.26,4.071c0.544,0.231,1.079,0.307,1.587,0.264C152.978,90.081,152.274,89.658,151.714,88.949z"/>
					<path style="opacity:0.5;fill:#FFE4DC;" d="M134.21,45.562c-1.143-2.465-2.991-4.625-4.627-6.766
						c-0.996-1.307-1.882-2.656-3.084-3.792c-0.382-0.36-0.935-0.97-1.451-1.138c-0.264-0.086-0.479-0.092-0.691-0.076
						c-0.943-0.261-2.076-0.216-3.002-0.341c-2.214-0.295-4.245-0.896-6.277-1.827c-3.498-1.602-6.636-4.05-9.714-6.325
						c-0.8-0.593-1.551-1.248-2.309-1.896c1.736,2.483,3.361,5.087,5.952,6.785c3.259,2.132,6.908,2.296,10.549,3.363
						c2.294,0.671,6.196,1.801,6.851,4.537c0.785,3.291-2.336,4.844-5.166,4.851c-4.513,0.006-9.626-1.069-13.568-3.285
						c-2.424-1.363-4.303-3.206-6.238-5.177c-2.378-2.418-4.916-4.046-8.241-4.846c-3.967-0.954-11.722-1.827-13.469-6.372
						c-0.855-2.229,0.066-4.228,1.575-5.845c-0.937,0.737-1.803,1.581-2.57,2.442c-1.008,1.135-2.065,2.699-1.706,4.319
						c0.429,1.944,2.047,3.485,3.46,4.78c1.517,1.392,2.94,2.569,4.787,3.523c0.721,0.373,1.463,0.695,2.211,0.992
						c1.525,0.884,3.097,1.699,4.666,2.497c4.078,2.072,8.318,4.263,12.702,5.615c4.577,1.412,9.252,2.817,14.035,3.344
						c1.176,0.13,2.344,0.393,3.521,0.541c1.317,0.166,2.646,0.232,3.959,0.433c2.372,0.365,4.712,0.337,7.112,0.337
						c0.257,0.011,0.493-0.032,0.661-0.212C134.26,45.891,134.288,45.728,134.21,45.562z"/>
					<path style="opacity:0.5;fill:#FFE4DC;" d="M134.21,45.562c-1.143-2.465-2.991-4.625-4.627-6.766
						c-0.367-0.484-0.722-0.975-1.086-1.461c0.609,2.046,0.485,5.077-1.343,6.308c-3.113,2.094-7.429,1.078-10.845,0.367
						c-4.048-0.846-8.226-1.789-11.848-3.859c-3.933-2.245-7.297-5.814-11.641-7.229c-3.348-1.091-6.927-1.705-9.884-3.73
						c-2.285-1.563-4.823-3.812-5.118-6.765c-0.05-0.509-0.034-0.986,0.028-1.442c-0.632,0.951-1.075,2.055-0.823,3.188
						c0.429,1.944,2.047,3.485,3.46,4.78c1.517,1.392,2.94,2.569,4.787,3.523c0.721,0.373,1.463,0.695,2.211,0.992
						c1.525,0.884,3.097,1.699,4.666,2.497c4.078,2.072,8.318,4.263,12.702,5.615c4.577,1.412,9.252,2.817,14.035,3.344
						c1.176,0.13,2.344,0.393,3.521,0.541c1.317,0.166,2.646,0.232,3.959,0.433c2.372,0.365,4.712,0.337,7.112,0.337
						c0.257,0.011,0.493-0.032,0.661-0.212C134.26,45.891,134.288,45.728,134.21,45.562z"/>
				</g>
				<g>
					<g>
						<path style="fill:#B00702;" d="M107.731,105.588c-0.986-1.891-3.754-2.821-5.734-2.935c-1.523-0.09-5.387,0.083-5.829,2.133
							c-2.653,12.266-4.9,24.375-5.03,36.967c-0.04,3.862,0.055,7.726,0.188,11.588c0.087,2.376,0.279,5.036,1.72,7.006
							c1.498,2.045,4.789,1.931,7.03,1.845c1.989-0.078,5.825,0.354,7.537-0.646c1.559-0.91,0.743-4.355,0.771-5.836
							c0.252-13.409,1.014-26.814,1.223-40.217C109.659,112.09,109.318,108.655,107.731,105.588z"/>
					</g>
					<g>
						<path style="opacity:0.8;fill:#EBE5C9;" d="M102.814,141.756c-3.173,0.685-6.344,1.324-9.51,2.036
							c-0.72,0.16-1.446,0.314-2.173,0.437c0.01,2.367,0.059,4.73,0.131,7.094c3.719-0.346,7.502-1.465,10.928-2.215
							c2.15-0.472,4.294-0.985,6.407-1.591c0.077-2.453,0.164-4.909,0.251-7.36C106.869,140.786,104.855,141.318,102.814,141.756z"
							/>
						<path style="opacity:0.8;fill:#EBE5C9;" d="M104.205,114.768c-3.26,0.75-6.863,1.57-10.394,1.775
							c-0.299,1.654-0.587,3.309-0.846,4.967c3.072-0.399,6.147-0.792,9.207-1.279c2.471-0.394,4.929-0.842,7.367-1.38
							c0.024-1.121,0.049-2.24,0.066-3.359c0.012-0.718,0.003-1.436-0.028-2.151C107.801,113.868,106.011,114.354,104.205,114.768z"
							/>
						<path style="opacity:0.8;fill:#EBE5C9;" d="M104.41,126.745c-4.008,0.872-8.273,2.242-12.488,2.487
							c-0.258,2.368-0.465,4.745-0.6,7.14c1.297-0.099,2.592-0.32,3.877-0.566c2.893-0.556,5.761-1.235,8.589-2.061
							c1.8-0.527,3.582-1.098,5.355-1.704c0.076-2.125,0.148-4.251,0.213-6.377C107.709,126.031,106.058,126.387,104.41,126.745z"/>
						<path style="opacity:0.8;fill:#EBE5C9;" d="M102.609,157.78c-3.256,0.823-6.67,1.521-10.085,1.723
							c0.155,0.291,0.325,0.576,0.522,0.844c1.498,2.045,4.789,1.931,7.03,1.845c1.989-0.078,5.825,0.354,7.537-0.646
							c1.447-0.844,0.848-3.868,0.777-5.484C106.481,156.709,104.554,157.289,102.609,157.78z"/>
					</g>
					<path style="opacity:0.4;fill:#A30000;" d="M107.731,105.588c-0.986-1.891-3.754-2.821-5.734-2.935
						c-1.523-0.09-5.387,0.083-5.829,2.133c-0.271,1.252-0.534,2.501-0.794,3.748c-0.07,0.344,1.671,1.066,1.925,1.142
						c1.278,0.39,2.634,0.441,3.961,0.489c0.275,0.01,0.429,0.205,0.462,0.461c0.694,5.89,0.087,11.963,0.223,17.89
						c0.122,5.379,0.23,10.77,0.696,16.133c0.511,5.911,1.439,11.814,3.208,17.424c0.689-0.097,1.305-0.262,1.764-0.529
						c1.559-0.91,0.743-4.355,0.771-5.836c0.252-13.409,1.014-26.814,1.223-40.217C109.659,112.09,109.318,108.655,107.731,105.588z
						"/>
					<path style="opacity:0.5;fill:#A30000;" d="M103.241,112.262c0.853,5.396-0.092,11.098,0.126,16.553
						c0.263,6.512,1.031,13.03,2.226,19.438c0.686,3.693,1.64,7.328,2.975,10.799c0.019-1.219-0.2-2.557-0.186-3.343
						c0.252-13.409,1.014-26.814,1.223-40.217c0.053-3.402-0.288-6.837-1.876-9.903c-0.986-1.891-3.754-2.821-5.734-2.935
						c-1.523-0.09-5.387,0.083-5.829,2.133c-0.163,0.751-0.319,1.5-0.475,2.25c0.87,0.332,1.774,0.551,2.748,0.701
						c2.007,0.309,3.631,0.108,4.328,2.426C102.976,110.854,103.131,111.554,103.241,112.262z"/>
					<g>
						<g>
							<path style="fill:#C90702;" d="M144.304,93.858c-0.346-1.175-0.814-2.363-1.261-3.63c-0.035-0.108-0.061-0.225-0.09-0.341
								c0.258-0.737,0.45-1.477,0.546-2.211c0.14-1.089,0.292-3.382-0.324-4.365c-0.463-0.738-1.836-2.606-2.819-2.597
								c-1.252,0.014-1.418,0.679-2.235,1.644c-1.629,1.919-3.853,3.477-6.086,4.585c-2.382,1.182-5.14,2.234-7.868,3.026
								c-3.152,0.54-6.365,0.76-9.545,0.962c-3.706,0.233-7.554,0.096-11.271,0.072c-1.663-0.01-3.326,0.107-4.987,0.14
								c-2.43,0.053-4.235-1.222-6.517-1.582c-1.648-0.257-3.149-0.414-4.811-0.206c-1.971,0.247-3.893,0.8-5.879,0.351
								c-2.025-0.459-3.817-1.516-5.323-2.926c-0.853-0.798-1.71-1.507-2.795-1.962c-1.733-0.724-3.528,2.735-3.927,3.866
								c-0.292,0.84-0.419,1.684-0.425,2.524c-0.863,0.788-1.575,1.698-1.887,2.893c-0.643,2.459,0.263,5.557,1.968,7.357
								c1.936,2.041,4.715,3.048,7.392,3.679c1.682,0.395,3.392,0.623,5.094,0.927c6.88,1.24,13.928,1.604,20.904,1.174
								c1.813-0.113,3.624-0.281,5.424-0.516c3.318-0.433,6.639-1.055,9.987-1.179c6.301-0.234,12.659,1.513,18.925,0.374
								c3.025-0.549,6.273-2.297,7.577-5.232C145.178,98.196,144.952,96.054,144.304,93.858z"/>
							<path style="fill:#A30000;" d="M96.556,107.651c-5.207,0-10.368-0.453-15.346-1.349c-0.537-0.096-1.075-0.184-1.612-0.273
								c-1.149-0.191-2.335-0.385-3.494-0.658c-2.185-0.515-5.342-1.463-7.508-3.748c-1.82-1.922-2.674-5.109-2.026-7.58
								c0.28-1.072,0.877-2.008,1.882-2.939c0.011-0.867,0.16-1.705,0.436-2.497c0.287-0.817,1.842-4.125,3.666-4.125
								c0.197,0,0.392,0.041,0.577,0.117c1.148,0.482,2.056,1.25,2.869,2.009c1.574,1.476,3.329,2.44,5.212,2.865
								c0.49,0.112,1.001,0.166,1.561,0.166c0.942,0,1.86-0.15,2.835-0.309c0.464-0.077,0.93-0.153,1.4-0.211
								c0.527-0.066,1.049-0.1,1.598-0.1c1.164,0,2.262,0.147,3.28,0.308c0.96,0.15,1.843,0.46,2.695,0.763
								c1.191,0.42,2.315,0.818,3.639,0.818l0.14-0.003c0.643-0.014,1.288-0.037,1.933-0.063c0.933-0.039,1.896-0.077,2.849-0.077
								h0.212c0.874,0.006,1.756,0.018,2.643,0.03c1.21,0.016,2.424,0.032,3.638,0.032c1.947,0,3.527-0.044,4.973-0.134
								c3.392-0.215,6.451-0.437,9.522-0.96c2.74-0.795,5.448-1.838,7.805-3.005c1.706-0.847,4.135-2.32,6.007-4.526
								c0.172-0.202,0.314-0.39,0.445-0.563c0.503-0.67,0.869-1.153,1.968-1.165c1.312,0,2.956,2.599,3.026,2.708
								c0.745,1.188,0.428,3.977,0.358,4.523c-0.09,0.689-0.269,1.426-0.533,2.19c0.019,0.086,0.039,0.171,0.068,0.249
								c0.129,0.369,0.26,0.732,0.391,1.091c0.32,0.882,0.625,1.713,0.871,2.551c0.565,1.916,0.977,4.245-0.242,6.994
								c-1.412,3.179-4.93,4.859-7.753,5.372c-1.454,0.265-3.008,0.393-4.753,0.393h-0.002c-2.171,0-4.384-0.2-6.521-0.395
								c-2.522-0.229-5.13-0.465-7.682-0.37c-2.425,0.089-4.882,0.448-7.257,0.797c-0.904,0.13-1.806,0.263-2.711,0.381
								c-1.743,0.226-3.57,0.401-5.44,0.517C100.305,107.593,98.415,107.651,96.556,107.651z M72.553,84.96
								c-1.418,0-2.871,2.83-3.214,3.806c-0.27,0.771-0.408,1.594-0.412,2.444l-0.002,0.106l-0.075,0.071
								c-0.98,0.89-1.558,1.772-1.819,2.777c-0.609,2.325,0.195,5.325,1.912,7.132c2.077,2.193,5.146,3.111,7.27,3.611
								c1.143,0.269,2.321,0.464,3.463,0.652c0.539,0.088,1.079,0.178,1.619,0.274c6.718,1.21,13.791,1.604,20.848,1.169
								c1.858-0.114,3.677-0.286,5.409-0.513c0.9-0.118,1.8-0.248,2.701-0.38c2.387-0.35,4.856-0.71,7.308-0.802
								c2.577-0.095,5.205,0.142,7.743,0.373c2.128,0.193,4.325,0.394,6.477,0.394h0.002c1.714,0,3.243-0.126,4.667-0.385
								c2.705-0.492,6.067-2.088,7.403-5.098c1.155-2.6,0.79-4.74,0.221-6.665c-0.243-0.822-0.544-1.65-0.86-2.524
								c-0.133-0.359-0.266-0.724-0.395-1.095c-0.035-0.098-0.061-0.205-0.086-0.313l-0.029-0.118l0.022-0.066
								c0.266-0.76,0.448-1.486,0.535-2.162c0.188-1.432,0.222-3.395-0.288-4.207c-0.602-0.962-1.843-2.486-2.609-2.486
								c-0.873,0.009-1.116,0.333-1.598,0.975c-0.136,0.179-0.284,0.375-0.462,0.585c-1.925,2.269-4.413,3.778-6.163,4.644
								c-2.377,1.181-5.112,2.232-7.906,3.043c-3.123,0.534-6.193,0.755-9.6,0.972c-1.456,0.09-3.047,0.134-5.002,0.134
								c-1.215,0-2.432-0.016-3.644-0.032c-0.885-0.012-1.767-0.024-2.638-0.028l-0.211-0.002c-0.943,0-1.903,0.037-2.831,0.076
								c-0.649,0.026-1.292,0.05-1.941,0.064l-0.149,0.003c-1.408,0-2.622-0.429-3.798-0.845c-0.83-0.292-1.693-0.597-2.609-0.742
								c-0.998-0.157-2.074-0.3-3.205-0.3c-0.529,0-1.032,0.029-1.54,0.094c-0.463,0.058-0.925,0.132-1.384,0.209
								c-0.949,0.154-1.931,0.314-2.91,0.314c-0.596,0-1.141-0.058-1.666-0.176c-1.97-0.447-3.798-1.45-5.436-2.985
								c-0.9-0.841-1.706-1.489-2.724-1.916C72.817,84.986,72.685,84.96,72.553,84.96z"/>
						</g>
						<path style="opacity:0.8;fill:#EBE5C9;" d="M69.846,93.36h-0.003c-0.471-0.095-0.27-0.813,0.199-0.72
							c2.402,0.477,5.043-1.413,7.052-2.545c0.65-0.367,1.303-0.734,1.944-1.117c-0.679-0.319-1.324-0.704-1.934-1.147
							c-2.609,1.241-5.494,2.094-8.291,2.015c-0.082,0.455-0.124,0.91-0.126,1.364c-0.627,0.573-1.172,1.213-1.545,1.979
							C67.995,93.689,69.034,93.923,69.846,93.36z"/>
						<path style="opacity:0.8;fill:#EBE5C9;" d="M71.43,101.316c3.124-0.159,6.327-1.228,8.958-2.914
							c3.517-2.251,6.053-5.447,7.637-9.125c-0.325,0.014-0.655,0.038-0.989,0.08c-0.552,0.068-1.098,0.161-1.645,0.249
							c-1.109,1.4-2.396,2.647-3.895,3.64c-2.296,1.521-5.906,3.54-8.755,2.786c-0.004,0.009-0.004,0.014-0.007,0.021
							c-1.193,1.835-3.654,2.418-5.798,2.081c0.33,1.147,0.887,2.224,1.606,3.068C69.543,101.34,70.547,101.36,71.43,101.316z"/>
						<path style="opacity:0.8;fill:#EBE5C9;" d="M87.785,106.968c2.448-1.787,4.552-3.991,6.002-6.169
							c1.99-2.981,3.268-6.291,3.706-9.694c-1.244-0.131-2.35-0.569-3.485-0.959c-0.908,3.868-3.289,7.513-6.195,10.216
							c-2.507,2.333-5.667,4.238-9.031,5.289c0.824,0.141,1.647,0.268,2.473,0.417C83.417,106.456,85.596,106.749,87.785,106.968z"
							/>
						<path style="opacity:0.8;fill:#EBE5C9;" d="M118.212,105.532c1.78-1.935,3.374-4.04,4.742-6.303
							c1.35-2.23,2.587-4.552,3.725-6.898c0.586-1.206,1.226-2.453,1.618-3.753c-1.35,0.52-2.743,0.992-4.13,1.393
							c-3.152,0.54-6.365,0.76-9.545,0.962c-3.384,0.212-6.885,0.118-10.297,0.083c0.064,3.792-0.699,7.574-2.546,10.963
							c-1.017,1.864-2.34,3.773-3.918,5.42c1.433-0.02,2.867-0.07,4.298-0.158c1.813-0.113,3.624-0.281,5.424-0.516
							c3.318-0.433,6.639-1.055,9.987-1.179C117.784,105.538,117.996,105.537,118.212,105.532z"/>
						<path style="opacity:0.8;fill:#EBE5C9;" d="M141.006,88.949c1.153-7.443,0.224-8.187-0.726-8.227
							c-1.177,0.043-1.361,0.696-2.16,1.638c-0.402,0.477-0.845,0.93-1.311,1.359c-0.457,5.253-3.062,10.435-5.432,15.001
							c-1.311,2.525-2.834,5.122-4.746,7.317c3.298,0.286,6.592,0.48,9.863-0.115c0.001,0,0.003-0.002,0.006-0.002
							c0.35-0.549,0.647-1.136,0.877-1.77c0.364-1.001,1.958-5.129,0.488-5.713C137.672,98.361,139.905,96.054,141.006,88.949z"/>
						<g>
							<path style="fill:#A30000;" d="M76.451,97.492c-2.402-0.738-4.177-2.279-5.905-4.055c-2.043-2.099-1.149-4.834-0.063-7.119
								c0.026-0.05-0.041-0.095-0.075-0.046c-0.258,0.359-0.611,0.672-0.876,1.038c-0.345,0.48-0.525,1.205-0.709,1.755
								c-0.417,1.255-0.055,2.65,0.523,3.789c0.651,1.285,2.028,2.276,3.172,3.098c1.2,0.86,2.42,1.526,3.9,1.751
								C76.541,97.723,76.565,97.526,76.451,97.492z"/>
							<path style="fill:#A30000;" d="M100.176,100.958c-1.228-0.392-2.375-0.857-3.367-1.693c-1.072-0.904-2.053-2.176-2.722-3.407
								c-0.052-0.099-0.227-0.038-0.187,0.072c1.002,2.714,3.247,5.105,6.244,5.231
								C100.263,101.167,100.288,100.993,100.176,100.958z"/>
							<path style="fill:#A30000;" d="M131.115,92.968c-0.571,1.29-1.235,2.437-2.074,3.566c-0.753,1.012-1.902,2.633-3.156,3.057
								c-0.104,0.034-0.066,0.176,0.04,0.163c1.165-0.154,2.539-1.367,3.205-2.281c1.046-1.441,1.888-2.65,2.217-4.432
								C131.376,92.886,131.178,92.826,131.115,92.968z"/>
							<path style="fill:#A30000;" d="M143.671,86.183c-0.026-0.117-0.203-0.096-0.205,0.021c-0.024,1.419-0.799,2.936-1.235,4.259
								c-0.498,1.509-1.191,2.979-1.974,4.358c-0.747,1.313-1.749,2.448-2.656,3.649c-1.075,1.426-2.381,2.724-3.858,3.724
								c-0.074,0.053-0.037,0.193,0.061,0.159c1.387-0.469,2.344-1.598,3.366-2.576c1.298-1.241,2.482-2.723,3.436-4.243
								c0.945-1.508,1.639-3.206,2.188-4.897C143.217,89.34,143.965,87.574,143.671,86.183z"/>
						</g>
						<path style="opacity:0.3;fill:#A30000;" d="M143.043,90.228c-0.035-0.108-0.061-0.225-0.09-0.341
							c0.258-0.737,0.45-1.477,0.546-2.211c0.14-1.089,0.292-3.382-0.324-4.365c-0.463-0.738-1.836-2.606-2.819-2.597
							c-1.252,0.014-1.418,0.679-2.235,1.644c-1.629,1.919-3.853,3.477-6.086,4.585c-2.382,1.182-5.14,2.234-7.868,3.026
							c-3.152,0.54-6.365,0.76-9.545,0.962c-3.706,0.233-7.554,0.096-11.271,0.072c-1.663-0.01-3.326,0.107-4.987,0.14
							c-2.43,0.053-4.235-1.222-6.517-1.582c-1.648-0.257-3.149-0.414-4.811-0.206c-1.971,0.247-3.893,0.8-5.879,0.351
							c-2.025-0.459-3.817-1.516-5.323-2.926c-0.853-0.798-1.71-1.507-2.795-1.962c-1.733-0.724-3.528,2.735-3.927,3.866
							c-0.292,0.84-0.419,1.684-0.425,2.524c-0.863,0.788-1.575,1.698-1.887,2.893c-0.643,2.459,0.263,5.557,1.968,7.357
							c1.362,1.436,3.143,2.353,5.007,2.996c-1.66-0.792-3.086-1.887-4.02-3.396c-2.373-3.836,2.312-3.785,5.866-3.604
							c-2.716-1.405-4.945-5.236-3.504-7.78c0.836-1.471,2.625-1.193,3.836-0.429c1.076,0.678,1.995,1.546,3.037,2.266
							c1.64,1.135,3.608,0.852,5.472,0.555c0.788-0.124,1.634-0.28,2.475-0.337c0.488-0.104,0.981-0.168,1.478-0.148
							c2.644,0.11,4.069,2.422,6.891,1.879c1.423-0.275,3.024-0.535,4.143,0.551c0.362,0.353,0.721,0.844,1.009,1.39
							c0.004,0.008,0.009,0.014,0.012,0.022c0.049,0.089,0.094,0.181,0.135,0.274c0.7,1.518,0.772,3.335-1.23,3.835
							c-0.5,0.124-1.053,0.118-1.625,0.021c-0.38,0-0.759-0.037-1.135-0.106c0.364,0.333,0.727,0.668,1.084,0.999
							c1.59,1.461,3.385,4.97,0.607,6.336c-0.569,0.279-1.193,0.479-1.844,0.621c1.9,0.003,3.799-0.048,5.694-0.164
							c1.813-0.113,3.624-0.281,5.424-0.516c3.318-0.433,6.639-1.055,9.987-1.179c6.301-0.234,12.659,1.513,18.925,0.374
							c0.246-0.042,0.493-0.097,0.741-0.158c-1.269,0.18-2.568,0.199-3.857,0.062c-2.057,0.274-4.026,0.066-5.269-1.347
							c-1.461-1.662-1.193-3.86-0.002-5.647c0.125-0.188,0.76-0.89,1.263-1.61c0.14-0.224,0.279-0.447,0.414-0.672
							c0.273-0.524,0.341-0.964-0.066-1.107c-0.801,0.452-2.366,0.747-2.978-0.109c-0.401-0.566-0.037-1.487,0.259-2.021
							c0.649-1.167,1.866-1.636,3.15-1.965c2.136-1.105,4.442-1.917,6.654-2.892c1.037-0.633,2.356-1.236,3.382-0.85
							c0.55,0.146,1.031,0.501,1.348,1.126c0.598,1.183,0.322,2.818-0.199,4.349c0.572-0.292,1.188-0.437,1.849-0.338
							c0.314,0.049,0.594,0.135,0.849,0.256C143.731,92.1,143.381,91.186,143.043,90.228z"/>
						<path style="opacity:0.5;fill:#A30000;" d="M140.356,80.715c-1.252,0.014-1.418,0.679-2.235,1.644
							c-1.629,1.919-3.853,3.477-6.086,4.585c-2.382,1.182-5.14,2.234-7.868,3.026c-3.152,0.54-6.365,0.76-9.545,0.962
							c-3.706,0.233-7.554,0.096-11.271,0.072c-1.663-0.01-3.326,0.107-4.987,0.14c-2.43,0.053-4.235-1.222-6.517-1.582
							c-1.648-0.257-3.149-0.414-4.811-0.206c-1.971,0.247-3.893,0.8-5.879,0.351c-1.959-0.445-3.699-1.451-5.175-2.795
							c0.445,0.66,0.877,1.325,1.438,1.866c1.525,1.467,3.688,2.245,5.806,2.097c2.557-0.176,4.535-0.916,7.07-0.076
							c2.546,0.841,5.068,0.962,7.638,1.572c1.436,0.341,2.875,1.243,3.696,2.474c1.017,1.528,1.162,3.451,1.167,5.236
							c0,0.543-0.315,7.13-0.006,7.108c1.602-0.11,3.2-0.257,4.792-0.465c3.318-0.433,6.639-1.055,9.987-1.179
							c2.156-0.08,4.32,0.073,6.482,0.261c0.962-3.124,0.342-6.812,0.422-10.052c0.098-3.95,2.57-5.458,6.091-6.539
							c2.679-0.82,11.053-2.743,12.371-6.263C142.344,82.099,141.204,80.706,140.356,80.715z"/>
					</g>
					<g>
						<g>
							<path style="fill:#E50702;" d="M129.855,160.774c-0.246-0.97-0.753-1.891-1.216-2.854c-0.96-1.991-1.767-4.043-2.437-6.146
								c-1.412-4.424-2.223-9.033-2.596-13.655c-0.212-2.641-0.303-5.287-0.286-7.938c0.013-2.911,0.095-5.823,0.116-8.736
								c0.018-2.257,0.087-4.517,0.286-6.77c0.148-1.672,0.369-3.337,0.695-4.984c0.34-1.718,0.672-3.441,0.869-5.183
								c0.294-2.604,0.326-5.244-0.016-7.848c-0.572-4.315-4.129-8.861-8.353-10.129c-1.24-0.373-2.571-0.508-3.857-0.307
								c-1.201,0.188-2.332,0.65-3.492,0.997c-0.592,0.177-1.908,0.707-2.461,0.238c-1.721-1.454-4.447-1.987-6.411-0.692
								c-0.782,0.517-1.42,1.227-1.947,1.993c-1.513,2.194-3.581,1.845-2.855,2.047c1.22,0.343,2.487,0.316,2.829,0.32
								c1.048,0.011,2.181-0.059,3.216,0.136c1.836,0.348,1.376,3.826,1.405,5.067c0.083,3.864,0.169,7.726,0.234,11.59
								c0.066,3.939,0.15,7.877,0.35,11.814c0.11,2.191,0.268,4.378,0.459,6.567c0.257,2.825,0.589,5.643,1.003,8.449
								c0.814,5.514,2.009,10.955,3.288,16.378c0.759,3.216,1.592,6.416,2.513,9.591c0.625,2.164,1.284,4.431,2.73,6.213
								c3.924,4.833,14.046,1.877,15.875-3.695C130.084,162.352,130.053,161.545,129.855,160.774z"/>
						</g>
						<path style="opacity:0.8;fill:#EBE5C9;" d="M103.345,96.327c0.008,0.479,0.019,0.959,0.029,1.436
							c2.861-2.155,5.788-4.63,9.598-3.551c1.286,0.362,2.656,1.089,4.002,1.136c1.399,0.051,2.721-0.258,3.985-0.854
							c1.051-0.497,2.065-1.061,3.092-1.599c-0.358-0.692-0.772-1.362-1.244-1.993c-2.637-1.528-5.944-2.288-8.461-2.227
							c-1.508,0.039-2.441,0.452-3.625,1.376c-0.564,0.442-1.261,0.994-2.027,0.96c-1.036-0.047-1.918-0.464-2.796-0.998
							c-0.698-0.425-1.512-0.987-2.39-0.704c-0.962,0.311-2.031,0.892-2.484,1.843c0.311,0.022,0.618,0.052,0.916,0.107
							C103.776,91.607,103.316,95.086,103.345,96.327z"/>
						<path style="opacity:0.8;fill:#EBE5C9;" d="M103.757,115.47c2.58-2.343,5.978-4.054,9.035-5.228
							c3.87-1.485,7.886-2.206,11.975-2.384c0.207-1.113,0.392-2.228,0.518-3.354c0.095-0.848,0.162-1.7,0.198-2.554
							c-1.215-0.503-2.482-0.845-3.93-0.783c-2.593,0.109-5.177,0.595-7.693,1.229c-3.732,0.939-7.757,2.292-10.289,5.199
							c0.003,0.107,0.003,0.213,0.006,0.32C103.62,110.436,103.672,112.954,103.757,115.47z"/>
						<path style="opacity:0.8;fill:#EBE5C9;" d="M105.329,134.306c4.571-5.602,11.076-9.456,18.085-11.323
							c0.008-0.513,0.02-1.027,0.021-1.54c0.013-1.812,0.066-3.627,0.187-5.437c-3.568,0.639-7.088,1.669-10.336,3.211
							c-3.056,1.448-6.405,3.073-9.036,5.359c0.044,0.574,0.086,1.149,0.136,1.723C104.631,128.975,104.943,131.646,105.329,134.306
							z"/>
						<path style="opacity:0.8;fill:#EBE5C9;" d="M114.119,167.149c1.748-0.394,3.676-2.142,4.667-3.034
							c1.658-1.492,3.441-2.79,5.366-3.925c1.448-0.853,2.929-1.639,4.423-2.406c-0.931-1.947-1.718-3.954-2.374-6.011
							c-0.131-0.405-0.251-0.811-0.371-1.216c-5.457,2.89-10.478,6.625-14.258,11.447c0.538,1.75,1.189,3.495,2.347,4.924
							C113.984,167.005,114.053,167.076,114.119,167.149z"/>
						<path style="opacity:0.8;fill:#EBE5C9;" d="M109.398,154.08c2.31-3.886,5.522-7.306,9.034-10.054
							c1.68-1.316,3.52-2.361,5.448-3.209c-0.107-0.899-0.2-1.799-0.275-2.699c-0.118-1.462-0.194-2.926-0.24-4.389
							c-1.872,0.801-3.688,1.728-5.388,2.865c-4.112,2.749-7.203,6.4-10.297,10.205c0.323,1.444,0.655,2.886,0.995,4.326
							C108.91,152.112,109.152,153.096,109.398,154.08z"/>
						<path style="fill:#A30000;" d="M103.279,91.104c-0.775-1.298-2.352-2.044-3.754-1.256c-0.091,0.052-0.032,0.178,0.064,0.166
							c1.789-0.24,3.179,0.546,3.66,2.35c0.384,1.447-0.02,2.9,0.078,4.361c0.013,0.148,0.224,0.159,0.236,0.006
							C103.7,94.911,104.291,92.794,103.279,91.104z"/>
						<path style="fill:#A30000;" d="M114.834,92.625c-2.454-0.769-4.252-2.115-6.071-3.896c-1.301-1.275-2.459-2.288-4.302-2.628
							c-0.061-0.01-0.068,0.076-0.021,0.098c0.975,0.477,2.034,0.925,2.825,1.686c0.798,0.77,1.512,1.628,2.37,2.34
							c1.577,1.303,3.123,2.154,5.174,2.512C114.873,92.75,114.896,92.646,114.834,92.625z"/>
						<path style="opacity:0.3;fill:#A30000;" d="M124.381,166.881c-5.646,0.163-9.997-3.294-10.075-9.156
							c-0.095-7.147,2.343-14.719,5.134-21.218c1.612-3.755,3.281-7.467,3.948-11.519c0.019-1.181,0.04-2.364,0.048-3.546
							c0.018-2.257,0.087-4.517,0.286-6.77c0.148-1.672,0.369-3.337,0.695-4.984c0.34-1.718,0.672-3.441,0.869-5.183
							c0.294-2.604,0.326-5.244-0.016-7.848c-0.293-2.205-1.367-4.469-2.911-6.326c0.554,0.847,0.977,1.778,1.203,2.808
							c0.416,1.892,0.309,6.007-2.825,5.288c-4.695-1.078-2.759-7.312-7.234-8.591c-1.596-0.456-4.549-0.728-5.794-2.206
							c-0.183-0.006-0.353-0.037-0.489-0.112c0.303,0.81,0.835,1.602,1.448,2.378c1.571,1.453,3.84,2.662,4.832,4.198
							c1.257,1.945,2.288,4.355,2.116,6.729c-0.282,3.838-4.176,6.189-7.29,3.264c-1.691-1.588-2.387-3.567-2.69-5.833
							c-0.373-2.819-0.633-8.795-4.638-8.916c-0.894-0.027-1.562-0.52-1.73-1.254c-0.182,0.217-0.357,0.439-0.517,0.672
							c-1.513,2.194-3.581,1.845-2.855,2.047c1.22,0.343,2.487,0.316,2.829,0.32c1.048,0.011,2.181-0.059,3.216,0.136
							c1.836,0.348,1.376,3.826,1.405,5.067c0.083,3.864,0.169,7.726,0.234,11.59c0.066,3.939,0.15,7.877,0.35,11.814
							c0.11,2.191,0.268,4.378,0.459,6.567c0.257,2.825,0.589,5.643,1.003,8.449c0.814,5.514,2.009,10.955,3.288,16.378
							c0.759,3.216,1.592,6.416,2.513,9.591c0.625,2.164,1.284,4.431,2.73,6.213c3.362,4.14,11.267,2.561,14.616-1.477
							C127.473,166.3,126.104,166.832,124.381,166.881z"/>
						<g style="opacity:0.3;">
							<path style="fill:#A30000;" d="M116.883,167.667c-3.414-2.786-4.394-7.852-5.325-11.916
								c-2.348-10.242-3.746-13.398,1.308-22.644c5.61-10.266-8.027-14.722-8.103-30.004c-0.018-3.654,0.476-7.701-1.336-11.028
								c-1.409-2.592-3.826-1.991-6.219-1.843c-0.414,0.199-0.824,0.404-1.238,0.592c1.195,0.321,2.417,0.297,2.754,0.301
								c1.048,0.011,2.181-0.059,3.216,0.136c1.836,0.348,1.376,3.826,1.405,5.067c0.083,3.864,0.169,7.726,0.234,11.59
								c0.066,3.939,0.15,7.877,0.35,11.814c0.11,2.191,0.268,4.378,0.459,6.567c0.257,2.825,0.589,5.643,1.003,8.449
								c0.814,5.514,2.009,10.955,3.288,16.378c0.759,3.216,1.592,6.416,2.513,9.591c0.625,2.164,1.284,4.431,2.73,6.213
								c1.693,2.084,4.536,2.718,7.371,2.319C119.71,169.205,118.176,168.724,116.883,167.667z"/>
							<path style="fill:#A30000;" d="M119.717,169.601L119.717,169.601c-2.538,0-4.661-0.897-5.98-2.52
								c-1.483-1.825-2.14-4.099-2.778-6.298c-0.901-3.12-1.748-6.351-2.513-9.603c-1.211-5.134-2.447-10.676-3.291-16.398
								c-0.405-2.745-0.743-5.59-1.007-8.462c-0.206-2.388-0.356-4.539-0.458-6.576c-0.189-3.748-0.277-7.437-0.349-11.822
								c-0.067-3.944-0.156-8.005-0.235-11.587c-0.006-0.203,0.002-0.462,0.012-0.759c0.046-1.431,0.122-3.825-1.222-4.08
								c-0.633-0.118-1.31-0.136-1.946-0.136l-0.934,0.003l-0.394-0.002c-0.434,0-1.587-0.003-2.714-0.307l-0.642-0.17l0.604-0.277
								c0.291-0.135,0.58-0.275,0.871-0.414l0.45-0.2c0.3-0.018,0.603-0.044,0.903-0.07c0.551-0.048,1.121-0.097,1.664-0.097
								c1.264,0,2.849,0.244,3.879,2.135c1.515,2.782,1.451,6.013,1.389,9.137c-0.015,0.675-0.029,1.345-0.025,2.003
								c0.036,7.133,3.029,11.847,5.67,16.007c2.917,4.593,5.438,8.562,2.402,14.114c-4.587,8.397-3.842,11.573-1.847,20.061
								c0.177,0.76,0.367,1.564,0.563,2.416l0.16,0.702c0.903,3.988,1.928,8.506,5.083,11.083c1.187,0.968,2.621,1.482,4.262,1.526
								l0.026,0.476C120.782,169.56,120.24,169.601,119.717,169.601z M103.374,92.489c0.287,0.967,0.248,2.204,0.22,3.102
								c-0.009,0.285-0.015,0.535-0.012,0.732c0.079,3.582,0.17,7.643,0.234,11.59c0.073,4.381,0.16,8.064,0.349,11.806
								c0.103,2.031,0.254,4.175,0.458,6.559c0.263,2.859,0.599,5.698,1.003,8.433c0.841,5.707,2.076,11.234,3.284,16.359
								c0.765,3.245,1.608,6.467,2.509,9.579c0.624,2.153,1.269,4.378,2.689,6.129c1.099,1.354,2.813,2.164,4.878,2.317
								c-0.819-0.274-1.574-0.689-2.252-1.241c-3.284-2.684-4.373-7.488-5.249-11.348l-0.159-0.702
								c-0.196-0.852-0.384-1.655-0.563-2.414c-1.967-8.376-2.783-11.841,1.893-20.398c2.899-5.305,0.567-8.979-2.386-13.631
								c-2.675-4.214-5.709-8.99-5.745-16.26c-0.004-0.66,0.01-1.333,0.024-2.014C104.605,98.14,104.667,95.096,103.374,92.489z
								 M99.949,90.881c0.659,0,1.362,0.018,2.035,0.144c0.19,0.036,0.359,0.1,0.51,0.187c-0.808-0.778-1.779-0.908-2.735-0.908
								c-0.523,0-1.057,0.046-1.624,0.094c-0.288,0.026-0.576,0.05-0.866,0.069l-0.317,0.154c-0.083,0.041-0.164,0.078-0.245,0.118
								c0.829,0.141,1.588,0.145,1.916,0.145l0.393,0.001L99.949,90.881z"/>
						</g>
					</g>
				</g>
			</g>
			<g>
				<path style="opacity:0.5;fill:#DEE6EC;" d="M84.816,112.769c-0.58-1.194-1.861-1.916-3.144-1.977
					c-0.566-0.028-1.08,0.172-1.532,0.489c-1.074,0.367-2.037,1.496-2.58,2.356c-1.548,2.46,0.212,6.374,3.279,5.868
					C83.539,119.061,86.082,115.372,84.816,112.769z"/>
				<path style="opacity:0.5;fill:#DEE6EC;" d="M79.736,163.834c-0.024-0.034-0.049-0.065-0.078-0.097
					c-0.06-0.076-0.124-0.148-0.194-0.217c-0.03-0.033-0.06-0.064-0.091-0.094c-0.09-0.08-0.182-0.159-0.28-0.23
					c-0.058-0.043-0.12-0.083-0.182-0.123c-0.044-0.031-0.088-0.058-0.133-0.084c-0.078-0.047-0.154-0.089-0.234-0.129
					c-0.009-0.006-0.016-0.007-0.024-0.014c-0.524-0.259-1.113-0.415-1.708-0.442c-0.565-0.024-1.077,0.155-1.529,0.44
					c-1.074,0.324-2.039,1.331-2.583,2.097c-0.835,1.181-0.702,2.73,0.07,3.846c0.022,0.03,0.044,0.064,0.066,0.095
					c0.053,0.072,0.111,0.138,0.169,0.206c0.043,0.048,0.083,0.096,0.128,0.142c0.054,0.055,0.112,0.107,0.169,0.159
					c0.057,0.05,0.113,0.1,0.172,0.146c0.056,0.044,0.115,0.084,0.176,0.124c0.068,0.048,0.138,0.093,0.21,0.133
					c0.06,0.034,0.12,0.066,0.183,0.096c0.077,0.039,0.161,0.073,0.245,0.105c0.06,0.024,0.122,0.049,0.186,0.066
					c0.09,0.031,0.188,0.053,0.284,0.072c0.062,0.012,0.122,0.028,0.185,0.038c0.109,0.018,0.223,0.024,0.338,0.03
					c0.056,0.003,0.111,0.01,0.166,0.01c0.174,0,0.352-0.013,0.535-0.038c2.699-0.397,5.24-3.683,3.976-6.003
					C79.893,164.053,79.818,163.94,79.736,163.834z"/>
				<path style="opacity:0.5;fill:#DEE6EC;" d="M80.199,135.652c-0.11-0.084-0.224-0.161-0.34-0.228
					c-0.021-0.009-0.04-0.018-0.061-0.028c-0.1-0.058-0.203-0.109-0.31-0.155c-0.01-0.003-0.022-0.008-0.032-0.012
					c-1.605-0.663-3.638-0.08-4.984,0.911c-0.639,0.47-1.029,1.14-1.194,1.863l0,0c-0.001,0.003-0.001,0.008-0.004,0.012
					c-0.028,0.126-0.047,0.252-0.061,0.38c-0.003,0.013-0.003,0.022-0.005,0.034c-0.014,0.133-0.021,0.265-0.021,0.4
					c0,0.003,0,0.003,0,0.008c0.001,0.273,0.034,0.547,0.093,0.816c0.005,0.023,0.014,0.047,0.02,0.069
					c0.024,0.102,0.054,0.204,0.086,0.305c0.014,0.037,0.028,0.075,0.042,0.113c0.032,0.085,0.066,0.169,0.102,0.251
					c0.02,0.04,0.038,0.08,0.058,0.12c0.042,0.082,0.086,0.16,0.135,0.239c0.02,0.034,0.041,0.07,0.061,0.104
					c0.071,0.108,0.147,0.215,0.231,0.315c0.704,0.847,2.099,1.463,3.239,1.216c1.309,0.221,2.755-0.32,3.582-1.406
					C82.112,139.301,81.913,136.955,80.199,135.652z"/>
			</g>
			<g>
				<g>
					<path style="fill:#512C0A;" d="M199.364,104.287c-0.17-0.253-0.298-0.268-0.596-0.305c-0.854-0.111-1.845,0.021-2.714,0.024
						c-3.695,0.017-7.476,0.225-11.152,0.6c-3.752,0.383-7.485,1.132-11.195,1.796c-0.55,0.099-1.093,0.209-1.64,0.315
						c0.917-0.77,1.755-1.689,2.668-2.398c1.671-1.297,3.219-2.74,4.768-4.179c1.364-1.271,2.908-2.34,4.268-3.603
						c0.759-0.706-0.148-1.68-0.699-2.345c0.071-0.169,0.112-0.346,0.202-0.529c0.275-0.555,0.657-1.018,1.017-1.519
						c0.202-0.285-0.184-0.719-0.484-0.51c-1.109,0.776-2.01,1.827-3.095,2.641c-2.993,2.247-5.674,4.924-8.662,7.21
						c-0.818,0.626-1.667,1.201-2.466,1.853c-0.052,0.044-0.102,0.09-0.154,0.136c-1.505,0.493-3.014,0.982-4.54,1.421
						c-3.382,0.973-6.794,1.808-10.244,2.497c-3.464,0.689-6.939,1.298-10.408,1.935c-3.339,0.612-6.627,1.367-10.029,1.511
						c-0.064,0.003-0.114,0.031-0.148,0.068c-0.113-0.124-0.384-0.068-0.371,0.133c0.056,0.801-0.26,1.72-0.3,2.538
						c-0.038,0.817-0.17,1.718-0.089,2.529c0.042,0.407,0.492,0.752,0.747,1.024c0.523,0.563,1.047,1.119,1.575,1.679
						c0.153,0.16,0.407,0.203,0.605,0.109c0.806-0.382,1.525-0.789,2.395-1.064c2.242-0.703,4.421-1.608,6.685-2.244
						c2.359-0.662,4.811-0.834,7.236-1.136c1.915,1.428,3.812,2.865,5.671,4.383c0.47,0.384,1.474,1.358,2.14,0.866
						c1.104-0.813,2.624-0.997,3.764-1.771c0.163-0.111,0.246-0.307,0.142-0.492c-0.251-0.451-0.774-0.737-1.133-1.097
						c-0.716-0.715-1.454-1.391-2.22-2.053c-0.147-0.126-0.298-0.252-0.444-0.381c0.303-0.089,0.602-0.178,0.897-0.252
						c1.899-0.483,3.804-0.913,5.678-1.495c3.45-1.072,7.006-1.736,10.576-2.268c3.715-0.552,7.433-1.139,11.131-1.801
						c1.905-0.341,3.823-0.575,5.753-0.74c1.069-0.09,2.839,0.251,3.428-0.836C198.153,106.116,199.747,104.871,199.364,104.287z"/>
					<path style="fill:#331300;" d="M159.934,120.1c-0.623,0-1.278-0.555-1.713-0.922l-0.157-0.132
						c-1.898-1.55-3.805-2.991-5.587-4.321c-0.481,0.061-0.964,0.114-1.45,0.169c-1.876,0.213-3.814,0.433-5.656,0.95
						c-1.293,0.363-2.583,0.823-3.83,1.267c-0.928,0.332-1.888,0.674-2.847,0.974c-0.638,0.201-1.189,0.474-1.774,0.763
						c-0.194,0.096-0.389,0.192-0.589,0.289c-0.287,0.135-0.666,0.066-0.882-0.162c-0.529-0.559-1.052-1.116-1.578-1.679
						c-0.049-0.052-0.107-0.109-0.166-0.166c-0.267-0.263-0.598-0.588-0.64-0.996c-0.06-0.594-0.01-1.224,0.038-1.833
						c0.02-0.249,0.038-0.493,0.05-0.73c0.016-0.365,0.086-0.743,0.153-1.112c0.088-0.477,0.177-0.969,0.146-1.401
						c-0.006-0.116,0.032-0.229,0.108-0.31c0.12-0.128,0.33-0.175,0.5-0.116c0.043-0.017,0.092-0.026,0.14-0.028
						c2.729-0.115,5.447-0.638,8.075-1.143c0.639-0.125,1.28-0.246,1.921-0.365c0.933-0.171,1.868-0.341,2.8-0.51
						c2.496-0.453,5.075-0.919,7.603-1.425c3.385-0.674,6.826-1.512,10.227-2.49c1.511-0.435,2.985-0.912,4.484-1.406l0.025-0.022
						c0.032-0.027,0.066-0.058,0.101-0.086c0.492-0.403,1.008-0.78,1.51-1.145c0.322-0.234,0.644-0.471,0.962-0.715
						c1.44-1.102,2.835-2.317,4.181-3.492c1.441-1.255,2.931-2.556,4.482-3.72c0.493-0.371,0.962-0.801,1.413-1.221
						c0.531-0.489,1.083-0.999,1.69-1.424c0.275-0.194,0.681-0.066,0.846,0.251c0.102,0.2,0.09,0.421-0.032,0.593
						c-0.082,0.114-0.166,0.227-0.25,0.339c-0.281,0.378-0.545,0.738-0.747,1.148c-0.046,0.095-0.078,0.187-0.108,0.277
						c-0.012,0.034-0.024,0.068-0.037,0.1l0.015,0.016c0.542,0.648,1.453,1.732,0.574,2.549c-0.683,0.638-1.422,1.231-2.139,1.806
						c-0.713,0.574-1.451,1.167-2.13,1.796l-0.041,0.041c-1.513,1.405-3.077,2.861-4.741,4.153c-0.502,0.389-0.995,0.856-1.47,1.307
						c-0.175,0.166-0.353,0.332-0.531,0.5c0.259-0.05,0.521-0.1,0.783-0.147c0.674-0.12,1.348-0.245,2.024-0.367
						c3.003-0.549,6.109-1.118,9.189-1.432c3.761-0.384,7.522-0.585,11.175-0.602c0.294,0,0.602-0.015,0.912-0.034
						c0.65-0.031,1.331-0.051,1.833,0.012c0.316,0.041,0.539,0.068,0.763,0.409c0.376,0.568-0.373,1.354-0.975,1.986
						c-0.194,0.201-0.395,0.413-0.45,0.51c-0.473,0.875-1.551,0.95-2.523,0.95l0,0l-0.557-0.004c-0.19,0-0.374,0.004-0.539,0.018
						c-2.07,0.174-3.944,0.417-5.73,0.736c-3.327,0.596-6.866,1.169-11.139,1.803c-4.336,0.643-7.585,1.338-10.54,2.259
						c-1.395,0.434-2.827,0.786-4.213,1.13c-0.492,0.12-0.984,0.243-1.477,0.367c-0.154,0.04-0.309,0.083-0.467,0.127l0.113,0.095
						c0.827,0.712,1.556,1.388,2.234,2.066c0.117,0.118,0.257,0.228,0.395,0.341c0.291,0.233,0.592,0.473,0.777,0.807
						c0.152,0.277,0.063,0.614-0.217,0.805c-0.575,0.39-1.239,0.635-1.878,0.874c-0.688,0.253-1.335,0.493-1.88,0.894
						C160.331,120.037,160.142,120.1,159.934,120.1z M152.61,114.227l0.075,0.059c1.808,1.347,3.747,2.812,5.678,4.389l0.166,0.138
						c0.441,0.375,1.257,1.033,1.68,0.719c0.6-0.44,1.309-0.703,1.997-0.958c0.641-0.239,1.25-0.463,1.776-0.82
						c0.019-0.014,0.117-0.086,0.069-0.176c-0.142-0.253-0.393-0.455-0.659-0.668c-0.153-0.123-0.305-0.244-0.436-0.377
						c-0.667-0.668-1.39-1.335-2.208-2.041l-0.771-0.664l0.416-0.126c0.307-0.093,0.609-0.181,0.909-0.257
						c0.492-0.124,0.984-0.247,1.477-0.369c1.379-0.339,2.806-0.692,4.187-1.121c2.98-0.926,6.253-1.628,10.612-2.274
						c4.268-0.634,7.805-1.207,11.123-1.8c1.801-0.323,3.691-0.565,5.775-0.742c0.177-0.015,0.373-0.02,0.58-0.02l0.557,0.004l0,0
						c0.875,0,1.756-0.055,2.106-0.698c0.081-0.154,0.275-0.358,0.521-0.616c0.353-0.371,1.091-1.141,0.925-1.389
						c-0.106-0.159-0.141-0.165-0.416-0.2c-0.492-0.064-1.137-0.042-1.76-0.009c-0.318,0.017-0.633,0.033-0.932,0.033
						c-3.639,0.017-7.383,0.217-11.128,0.598c-3.061,0.312-6.16,0.88-9.152,1.427c-0.675,0.123-1.353,0.246-2.028,0.367
						c-0.396,0.072-0.794,0.15-1.191,0.228l-1.348,0.262l0.707-0.592c0.4-0.334,0.79-0.708,1.169-1.066
						c0.485-0.46,0.987-0.935,1.505-1.338c1.65-1.28,3.205-2.727,4.709-4.127l0.04-0.039c0.691-0.643,1.437-1.24,2.157-1.819
						c0.709-0.57,1.442-1.159,2.115-1.783c0.503-0.469,0.019-1.135-0.616-1.893l-0.2-0.239l0.057-0.134
						c0.03-0.068,0.055-0.136,0.079-0.207c0.036-0.108,0.075-0.218,0.132-0.333c0.221-0.449,0.511-0.841,0.791-1.221
						c0.08-0.111,0.164-0.218,0.244-0.331c0.021-0.032,0.01-0.07-0.005-0.099c-0.028-0.056-0.081-0.09-0.113-0.09
						c-0.614,0.419-1.151,0.917-1.671,1.396c-0.462,0.427-0.938,0.867-1.452,1.254c-1.538,1.154-3.02,2.445-4.452,3.695
						c-1.357,1.182-2.756,2.402-4.21,3.513c-0.318,0.245-0.645,0.483-0.97,0.72c-0.495,0.361-1.006,0.735-1.487,1.129
						c-0.031,0.024-0.06,0.048-0.085,0.073l-0.148,0.106c-1.52,0.498-3.012,0.981-4.547,1.424
						c-3.414,0.982-6.868,1.824-10.264,2.502c-2.533,0.506-5.116,0.972-7.612,1.426c-0.935,0.167-1.867,0.337-2.8,0.508
						c-0.639,0.118-1.278,0.24-1.916,0.363c-2.645,0.51-5.38,1.037-8.145,1.152l-0.176,0.197l-0.108-0.142
						c0.013,0.459-0.075,0.942-0.159,1.41c-0.069,0.368-0.131,0.718-0.149,1.049c-0.009,0.242-0.029,0.493-0.049,0.743
						c-0.048,0.59-0.095,1.197-0.038,1.748c0.024,0.236,0.286,0.495,0.498,0.702c0.067,0.065,0.13,0.126,0.183,0.184
						c0.524,0.563,1.047,1.12,1.574,1.676c0.077,0.082,0.227,0.107,0.331,0.06c0.2-0.095,0.392-0.191,0.583-0.286
						c0.602-0.297,1.171-0.577,1.841-0.79c0.951-0.298,1.908-0.639,2.831-0.97c1.256-0.447,2.553-0.908,3.86-1.275
						c1.881-0.527,3.84-0.75,5.735-0.965c0.513-0.057,1.027-0.115,1.538-0.18L152.61,114.227z"/>
				</g>
				<g>
					<path style="fill:#331300;" d="M170.103,106.168c-3.271,0.403-6.435,1.101-9.648,1.829c-3.086,0.697-6.181,1.367-9.232,2.223
						c-3.235,0.908-6.459,1.908-9.663,2.927c-1.456,0.46-2.88,0.962-4.289,1.552c-1.296,0.543-2.703,0.891-3.962,1.509
						c-0.147,0.072-0.027,0.274,0.119,0.215c1.17-0.478,2.43-0.755,3.61-1.221c1.675-0.659,3.344-1.257,5.06-1.794
						c3.199-1.001,6.416-1.986,9.647-2.892c2.891-0.813,5.857-1.57,8.809-2.114c1.638-0.303,3.229-0.825,4.859-1.144
						c1.579-0.307,3.176-0.506,4.752-0.849C170.326,106.376,170.26,106.148,170.103,106.168z"/>
					<path style="fill:#331300;" d="M179.14,97.178c-2.81,2.047-5.389,4.346-8.55,5.855c-1.777,0.85-3.689,1.289-5.567,1.86
						c-1.799,0.547-3.646,0.946-5.455,1.46c-3.625,1.031-7.328,1.574-11.022,2.274c-3.615,0.685-7.234,1.386-10.827,2.167
						c-0.147,0.032-0.091,0.245,0.051,0.223c3.646-0.58,7.258-1.256,10.886-1.943c3.845-0.732,7.678-1.315,11.451-2.383
						c1.817-0.513,3.661-0.918,5.468-1.465c1.644-0.497,3.314-0.882,4.883-1.595c3.366-1.524,6.025-3.895,8.842-6.233
						C179.423,97.297,179.269,97.083,179.14,97.178z"/>
					<path style="fill:#331300;" d="M182.705,96.113c-1.211,0.819-2.332,1.766-3.468,2.686c-1.494,1.211-3.146,2.276-4.715,3.384
						c-0.152,0.104-0.02,0.36,0.14,0.255c2.841-1.9,5.621-3.852,8.243-6.05C183.054,96.263,182.867,96.003,182.705,96.113z"/>
					<path style="fill:#331300;" d="M195.764,104.772c-2.877-0.019-5.762,0.385-8.612,0.745c-3.083,0.389-6.13,0.872-9.163,1.548
						c-0.083,0.021-0.086,0.102-0.05,0.153c-1.052,0.121-2.103,0.245-3.158,0.36c-5.353,0.581-10.658,1.839-15.827,3.329
						c-0.2,0.057-0.127,0.358,0.079,0.315c5.135-1.09,10.196-2.515,15.417-3.148c5.112-0.62,10.215-0.997,15.339-1.472
						c0.091-0.008,0.099-0.152,0.003-0.146c-2.464,0.154-4.933,0.188-7.399,0.344c-1.174,0.075-2.341,0.189-3.508,0.315
						c5.582-0.994,11.211-1.64,16.868-2.011C195.964,105.089,195.98,104.772,195.764,104.772z"/>
					<path style="fill:#331300;" d="M170.27,109.941c-2.675,0.355-5.355,0.966-8.012,1.459c-2.871,0.535-5.754,0.908-8.642,1.353
						c-5.44,0.839-11.143,1.163-15.858,4.317c-0.148,0.099-0.028,0.331,0.134,0.246c2.424-1.27,4.98-2.198,7.657-2.75
						c2.862-0.591,5.753-0.922,8.634-1.391c2.733-0.445,5.455-0.837,8.17-1.39c2.648-0.537,5.295-1.246,7.962-1.666
						C170.433,110.101,170.387,109.926,170.27,109.941z"/>
				</g>
				<path style="opacity:0.3;fill:#512C0A;" d="M188.129,106.898c-3.787,0.341-7.531,1.042-11.272,1.702
					c-3.106,0.548-6.193,1.119-9.325,1.49c-1.177,0.141-2.35,0.285-3.517,0.463c-2.072,0.65,9.905-4.189,9.693-4.151
					c-0.55,0.099-1.093,0.209-1.64,0.315c0.917-0.77,1.755-1.689,2.668-2.398c1.671-1.297,3.219-2.74,4.768-4.179
					c1.364-1.271,2.908-2.34,4.268-3.603c0.759-0.706-0.148-1.68-0.699-2.345c0.071-0.169,0.112-0.346,0.202-0.529
					c0.275-0.555,0.657-1.018,1.017-1.519c0.031-0.044,0.044-0.092,0.05-0.142c-4.086,3.794-8.782,6.982-12.466,11.167
					c-1.708,1.939-3.328,3.21-5.881,3.825c-2.728,0.66-5.504,1.153-8.247,1.744c-6.1,1.316-12.257,2.657-18.092,4.905
					c-2.134,0.822-4.199,1.776-6.194,2.853c0.165,0.242,0.418,0.455,0.587,0.635c0.523,0.563,1.047,1.119,1.575,1.679
					c0.153,0.16,0.407,0.203,0.605,0.109c0.806-0.382,1.525-0.789,2.395-1.064c2.242-0.703,4.421-1.608,6.685-2.244
					c2.359-0.662,4.811-0.834,7.236-1.136c1.915,1.428,3.812,2.865,5.671,4.383c0.242,0.199,0.63,0.556,1.038,0.784
					c-0.186-0.375-0.379-0.748-0.58-1.117c-0.696-1.279-1.658-2.404-2.309-3.691c-0.1-0.199-0.026-0.501,0.222-0.547
					c1.291-0.245,2.603-0.252,3.904-0.363c0.292-0.089,0.583-0.174,0.869-0.246c1.899-0.483,3.804-0.913,5.678-1.495
					c3.45-1.072,7.006-1.736,10.576-2.268c3.715-0.552,7.433-1.139,11.131-1.801c1.905-0.341,3.823-0.575,5.753-0.74
					c1.069-0.09,2.839,0.251,3.428-0.836c0.012-0.023,0.032-0.049,0.05-0.076C194.692,106.549,191.401,106.601,188.129,106.898z"/>
			</g>
			<g>
				<path style="fill:#512C0A;" d="M83.17,113.669c-0.498-1.022-1.594-1.642-2.695-1.694c-0.483-0.024-0.923,0.148-1.312,0.419
					c-0.921,0.315-1.746,1.281-2.212,2.02c-1.327,2.109,0.182,5.461,2.811,5.031C82.075,119.061,84.256,115.901,83.17,113.669z"/>
				<path style="fill:#331300;" d="M79.306,119.721L79.306,119.721c-1.075-0.002-2.021-0.596-2.592-1.634
					c-0.669-1.211-0.655-2.703,0.036-3.801c0.246-0.39,1.134-1.687,2.306-2.106c0.432-0.295,0.88-0.445,1.332-0.445l0.096,0.002
					c1.252,0.06,2.391,0.777,2.9,1.828c0.477,0.984,0.398,2.23-0.22,3.424c-0.735,1.419-2.053,2.474-3.362,2.691
					C79.635,119.707,79.469,119.721,79.306,119.721z M80.388,112.212c-0.361,0-0.729,0.127-1.086,0.379l-0.06,0.031
					c-0.823,0.28-1.62,1.176-2.088,1.918c-0.599,0.955-0.61,2.256-0.023,3.316c0.487,0.881,1.278,1.386,2.175,1.388l0,0
					c0.136,0,0.276-0.012,0.417-0.036c1.147-0.188,2.361-1.17,3.019-2.441c0.547-1.056,0.625-2.147,0.214-2.991
					c-0.436-0.899-1.413-1.512-2.493-1.562L80.388,112.212z"/>
			</g>
			<path style="opacity:0.5;fill:#A30000;" d="M83.17,113.669c-0.376-0.773-1.097-1.317-1.903-1.557
				c0.469,0.272,0.85,0.745,1.098,1.197c0.956,1.734-0.419,3.85-2.094,4.427c-1.643,0.565-3.528-0.056-3.744-1.989
				c-0.004-0.054-0.006-0.11-0.01-0.167c-0.338,1.979,1.067,4.222,3.245,3.865C82.075,119.061,84.256,115.901,83.17,113.669z"/>
			<g>
				<g>
					<path style="fill:#512C0A;" d="M78.157,164.099c-0.497-0.912-1.594-1.466-2.696-1.512c-0.483-0.02-0.922,0.133-1.309,0.375
						c-0.921,0.281-1.749,1.141-2.212,1.799c-1.327,1.879,0.18,4.867,2.809,4.482C77.063,168.902,79.241,166.085,78.157,164.099z"/>
					<path style="fill:#331300;" d="M74.291,169.514c-1.152,0-2.167-0.628-2.711-1.679c-0.549-1.061-0.487-2.292,0.164-3.212
						c0.246-0.349,1.139-1.508,2.307-1.879c0.43-0.263,0.876-0.397,1.325-0.397l0.098,0.002c1.244,0.055,2.381,0.696,2.893,1.637
						c0.448,0.822,0.418,1.83-0.084,2.839c-0.691,1.381-2.097,2.448-3.5,2.655C74.618,169.502,74.454,169.514,74.291,169.514z
						 M75.375,162.823c-0.368,0-0.737,0.116-1.097,0.341l-0.059,0.026c-0.826,0.251-1.618,1.047-2.085,1.708
						c-0.547,0.774-0.599,1.815-0.13,2.717c0.527,1.017,1.566,1.558,2.71,1.391c1.236-0.181,2.528-1.168,3.141-2.397
						c0.432-0.861,0.466-1.714,0.092-2.396c-0.433-0.798-1.414-1.342-2.496-1.388L75.375,162.823z"/>
				</g>
				<path style="opacity:0.5;fill:#A30000;" d="M78.157,164.099c-0.354-0.648-1.008-1.109-1.754-1.342
					c0.435,0.257,0.781,0.672,0.942,1.265c0.528,1.921-1.687,3.387-3.308,3.541c-1.518,0.143-2.292-0.933-2.409-2.204
					c-0.693,1.851,0.759,4.229,3.121,3.882C77.063,168.902,79.241,166.085,78.157,164.099z"/>
			</g>
			<g>
				<g>
					<path style="fill:#512C0A;" d="M78.95,136.362c-1.43-1.09-3.568-0.568-4.911,0.419c-1.372,1.007-1.418,3.076-0.39,4.309
						c0.603,0.727,1.798,1.253,2.777,1.044c1.124,0.188,2.362-0.275,3.068-1.205C80.586,139.489,80.417,137.48,78.95,136.362z"/>
					<path style="fill:#331300;" d="M75.97,142.419c-0.915,0-1.922-0.473-2.507-1.177c-0.578-0.692-0.853-1.662-0.739-2.588
						c0.103-0.853,0.521-1.586,1.174-2.065c0.913-0.672,2.084-1.074,3.128-1.074c0.788,0,1.504,0.229,2.068,0.658
						c1.532,1.168,1.79,3.319,0.589,4.901c-0.627,0.826-1.684,1.341-2.754,1.341l0,0c-0.169,0-0.334-0.014-0.5-0.038
						C76.282,142.405,76.127,142.419,75.97,142.419z M77.026,135.992c-0.946,0-2.01,0.368-2.845,0.981
						c-0.547,0.399-0.896,1.019-0.984,1.738c-0.098,0.798,0.138,1.63,0.633,2.227c0.581,0.699,1.72,1.141,2.543,0.962l0.045-0.008
						l0.046,0.007c1.04,0.176,2.208-0.283,2.837-1.113c1.04-1.369,0.822-3.228-0.498-4.233
						C78.317,136.181,77.718,135.992,77.026,135.992z"/>
				</g>
				<path style="opacity:0.5;fill:#A30000;" d="M78.95,136.362c-0.388-0.295-0.827-0.467-1.286-0.55
					c0.366,0.182,0.704,0.465,0.984,0.863c0.938,1.327,0.463,3.312-1.085,3.956c-1.674,0.697-3.459,0.065-4.295-1.532
					c-0.127-0.24-0.205-0.482-0.251-0.721c-0.211,0.932,0.015,1.973,0.632,2.713c0.603,0.727,1.798,1.253,2.777,1.044
					c1.124,0.188,2.362-0.275,3.068-1.205C80.586,139.489,80.417,137.48,78.95,136.362z"/>
			</g>
		</g>
		<path style="fill:#512C0A;" d="M117.636,75.171c-0.541-0.523-1.206-0.897-1.812-1.34c-0.725-0.527-1.453-1.064-2.146-1.634
			c-0.329-0.27-0.77,0.12-0.486,0.461c0.517,0.63,1.086,1.268,1.71,1.841c-2.026,2.195-3.939,3.973-6.523,5.545
			c-2.784,1.695-5.967,2.396-9.087,3.176c-6.37,1.595-12.81,0.661-18.567-2.388c-0.257-0.136-0.465,0.206-0.236,0.378
			c5.268,4.008,11.98,4.905,18.404,3.632c6.105-1.209,13.75-3.736,16.964-9.555c0.356,0.261,0.728,0.495,1.119,0.69
			C117.48,76.23,118.094,75.612,117.636,75.171z"/>
		<g>
			<g>
				<path style="fill:#FF9100;" d="M91.893,65.122c-0.892-1.28-1.671-2.457-2.578-3.461c-0.604-0.827-1.273-1.6-2.147-2.292
					c-1.514-1.193-4.652-0.993-6.383-0.568c-2.257,0.553-4.183,3.387-5.617,5.012c-1.686,1.91-3.362,3.726-4.915,5.762
					c-1.645,2.156-4.391,3.31-6.393,5.141c-2.263,2.069-4.072,4.522-6.213,6.711c-1.944,1.991-3.674,4.249-5.487,6.358
					c-1.313,1.528-3.452,3.375-3.584,5.512c-0.025,0.415,0.335,0.762,0.736,0.778c2.625,0.104,4.742-2.344,6.718-3.685
					c3.296-2.233,6.48-4.668,9.81-6.845c1.326-0.866,2.767-1.682,4.145-2.462c1.991-1.125,3.676-1.454,5.948-1.589
					c1.486-0.089,2.55-0.752,3.895-1.221c1.516-0.527,3.029-1.11,4.545-1.654c3.03-1.087,5.931-2.141,8.412-4.283
					C95.17,70.273,93.274,67.098,91.893,65.122z"/>
				<path style="fill:#FF6A00;" d="M49.474,94.318h-0.002c-0.056,0-0.113-0.002-0.171-0.005c-0.269-0.009-0.531-0.134-0.714-0.338
					c-0.176-0.193-0.264-0.441-0.251-0.693c0.113-1.817,1.56-3.379,2.833-4.757c0.287-0.309,0.563-0.607,0.809-0.897
					c0.581-0.672,1.149-1.359,1.72-2.05c1.203-1.453,2.447-2.956,3.777-4.318c0.886-0.904,1.73-1.872,2.545-2.811
					c1.154-1.323,2.347-2.69,3.678-3.91c0.821-0.747,1.771-1.391,2.691-2.014c1.334-0.905,2.717-1.84,3.676-3.096
					c1.26-1.656,2.572-3.129,3.959-4.687c0.32-0.36,0.644-0.721,0.965-1.089c0.264-0.298,0.545-0.639,0.841-0.998
					c1.331-1.612,2.981-3.614,4.899-4.087c0.875-0.214,1.933-0.336,2.905-0.336c1.131,0,2.687,0.164,3.682,0.95
					c0.787,0.62,1.464,1.342,2.193,2.336c0.766,0.849,1.458,1.846,2.19,2.902l0.393,0.565c0.984,1.41,3.598,5.155,0.848,7.532
					c-2.541,2.193-5.564,3.278-8.488,4.326c-0.642,0.228-1.285,0.468-1.926,0.706c-0.875,0.323-1.746,0.645-2.619,0.95
					c-0.389,0.134-0.757,0.288-1.115,0.437c-0.901,0.375-1.756,0.731-2.847,0.795c-2.181,0.131-3.837,0.427-5.841,1.56
					c-1.303,0.736-2.779,1.57-4.133,2.454c-1.877,1.227-3.74,2.558-5.541,3.846c-1.391,0.995-2.829,2.024-4.266,2.997
					c-0.49,0.331-0.983,0.731-1.505,1.152C53.156,92.949,51.452,94.318,49.474,94.318z M83.633,58.71
					c-0.935,0-1.954,0.118-2.79,0.324c-1.763,0.431-3.361,2.368-4.644,3.925c-0.302,0.364-0.587,0.709-0.852,1.012
					c-0.323,0.365-0.645,0.728-0.967,1.088c-1.381,1.553-2.686,3.02-3.938,4.661c-1.005,1.317-2.42,2.275-3.788,3.199
					c-0.905,0.614-1.84,1.248-2.635,1.974c-1.311,1.199-2.495,2.558-3.64,3.871c-0.819,0.941-1.667,1.915-2.563,2.831
					c-1.317,1.346-2.552,2.842-3.751,4.287c-0.573,0.692-1.145,1.383-1.724,2.06c-0.251,0.29-0.531,0.593-0.823,0.908
					c-1.219,1.32-2.603,2.813-2.705,4.462c-0.007,0.122,0.038,0.245,0.127,0.343c0.097,0.108,0.24,0.176,0.381,0.183
					c1.864,0.092,3.483-1.221,5.034-2.47c0.532-0.428,1.035-0.831,1.538-1.174c1.434-0.973,2.869-1.999,4.259-2.991
					c1.804-1.289,3.672-2.625,5.556-3.858c1.366-0.891,2.851-1.73,4.16-2.469c2.077-1.174,3.855-1.491,6.049-1.62
					c1.01-0.061,1.826-0.401,2.69-0.76c0.366-0.151,0.74-0.309,1.142-0.447c0.869-0.304,1.74-0.626,2.609-0.949
					c0.644-0.238,1.287-0.475,1.932-0.706c2.882-1.034,5.863-2.103,8.334-4.239c2.173-1.877,0.512-4.834-0.927-6.895l-0.394-0.568
					c-0.721-1.043-1.404-2.029-2.167-2.873c-0.717-0.979-1.367-1.671-2.117-2.263C86.132,58.855,84.688,58.71,83.633,58.71z"/>
			</g>
			<path style="fill:#FF6A00;" d="M82.106,75.949c-0.267-0.636-0.598-1.221-0.941-1.817c-0.118-0.204-0.412-0.037-0.316,0.173
				c0.28,0.621,0.544,1.255,0.888,1.845C81.877,76.39,82.21,76.196,82.106,75.949z"/>
			<path style="fill:#FF6A00;" d="M77.239,77.345c-0.164-0.314-0.324-0.677-0.568-0.937c-0.086-0.092-0.257,0.023-0.182,0.134
				c0.191,0.28,0.301,0.661,0.448,0.968c0.183,0.384,0.377,0.756,0.623,1.103c0.07,0.101,0.27,0.053,0.219-0.086
				C77.626,78.121,77.443,77.731,77.239,77.345z"/>
			<path style="fill:#FF6A00;" d="M80.535,66.907c-0.514-0.933-1.271-1.754-2.014-2.505c-0.662-0.667-1.337-1.444-2.126-1.954
				c-0.078-0.05-0.178,0.067-0.107,0.13c0.711,0.616,1.304,1.407,1.952,2.09c0.725,0.765,1.381,1.604,2.066,2.408
				C80.413,67.202,80.611,67.048,80.535,66.907z"/>
			<path style="fill:#FF6A00;" d="M77.729,67.414c-0.791-1.101-1.884-1.997-2.777-3.011c-0.088-0.097-0.219,0.037-0.145,0.135
				c0.415,0.559,0.904,1.063,1.326,1.618c0.396,0.526,0.825,1.094,1.362,1.483C77.626,67.732,77.83,67.552,77.729,67.414z"/>
			<path style="fill:#FF6A00;" d="M72.831,72.016c-0.766-0.917-1.652-1.726-2.429-2.628c-0.103-0.118-0.298,0.026-0.223,0.163
				c0.263,0.457,0.71,0.84,1.066,1.229c0.447,0.489,0.876,0.994,1.383,1.425C72.763,72.322,72.951,72.155,72.831,72.016z"/>
			<path style="fill:#FF6A00;" d="M66.842,78.522c-0.565-0.523-1.162-1.016-1.677-1.59c-0.269-0.301-0.51-0.627-0.788-0.918
				c-0.317-0.332-0.747-0.566-1.038-0.915c-0.082-0.098-0.235,0.02-0.177,0.129c0.148,0.272,0.367,0.465,0.588,0.681
				c0.356,0.351,0.656,0.728,0.967,1.119c0.543,0.679,1.203,1.255,1.916,1.748C66.788,78.885,66.981,78.65,66.842,78.522z"/>
			<path style="fill:#FF6A00;" d="M63.311,81.217c-0.916-0.999-1.841-2.014-2.82-2.951c-0.123-0.12-0.3,0.05-0.192,0.18
				c0.852,1.055,1.754,2.094,2.749,3.019C63.219,81.623,63.47,81.391,63.311,81.217z"/>
			<path style="fill:#FF6A00;" d="M56.931,86.286c-0.278-0.346-0.541-0.701-0.82-1.042c-0.273-0.332-0.621-0.628-0.872-0.97
				c-0.095-0.132-0.263,0.028-0.212,0.154c0.061,0.153,0.164,0.252,0.279,0.366c0.168,0.17,0.309,0.39,0.456,0.578
				c0.303,0.388,0.609,0.766,0.934,1.132C56.837,86.661,57.059,86.444,56.931,86.286z"/>
			<path style="opacity:0.3;fill:#FF9100;" d="M91.893,65.122c-0.892-1.28-1.671-2.457-2.578-3.461
				c-0.604-0.827-1.273-1.6-2.147-2.292c-0.708-0.557-1.772-0.808-2.88-0.876c0.388,0.475,0.726,0.998,1.027,1.48
				c0.9,1.434,2.058,3.04,2.324,4.738c0.005,0.038,0.009,0.076,0.012,0.115c0.237,0.921,0.037,1.874-0.927,2.866
				c-0.778,0.802-1.576,1.634-2.748,1.691c-0.609,0.029-1.224-0.612-1.682-1.076c-0.389-0.184-0.766-0.393-1.112-0.585
				c0.078,0.834,0.309,1.594,0.521,2.428c0.055,0.216-0.07,0.381-0.26,0.459c-1.056,0.436-1.833,0.13-2.808-0.196
				c-0.066,1.194-0.201,2.631-1.606,2.914c-1.493,0.298-2.677-0.429-3.899-1.135c1.053,1.533,2.251,3.696-0.075,4.223
				c-1.55,0.353-2.883,1.269-4.472,1.51c-0.857,0.129-1.68-0.092-2.452-0.441c0.742,1.231,1.108,2.352-0.342,3.577
				c-0.911,0.769-2.077,0.246-3.017-0.421c0.386,1.344,0.327,2.494-0.924,3.652c-1.129,1.049-3.245,3.488-5.049,2.685
				c-0.613-0.273-2.178,2.994-2.49,3.439c-0.639,0.904-1.34,1.582-2.315,2.113c-1.049,0.57-2.23,0.706-3.357,1.06
				c0.111,0.272,0.375,0.475,0.676,0.487c2.625,0.104,4.742-2.344,6.718-3.685c3.296-2.233,6.48-4.668,9.81-6.845
				c1.326-0.866,2.767-1.682,4.145-2.462c1.991-1.125,3.676-1.454,5.948-1.589c1.486-0.089,2.55-0.752,3.895-1.221
				c1.516-0.527,3.029-1.11,4.545-1.654c3.03-1.087,5.931-2.141,8.412-4.283C95.17,70.273,93.274,67.098,91.893,65.122z"/>
			<path style="opacity:0.5;fill:#FF9100;" d="M91.893,65.122c-0.697-1.001-1.328-1.935-2.002-2.778
				c0.932,1.791,1.376,3.788,0.938,5.441c0.01,0.617-0.116,1.223-0.447,1.788c-0.583,0.995-1.944,1.769-2.819,2.501
				c-0.72,0.599-1.51,1.355-2.403,1.676c-0.262,0.092-0.516,0.135-0.766,0.136c-1.268,0.372-2.436-0.253-3.785-0.868
				c-0.05,1.535,0.693,3.565-1.048,4.3c-1.153,0.49-2.262-0.693-3.126-1.67c0.156,1.112,0.207,2.188-0.977,2.785
				c-1.153,0.582-2.69,0.614-3.94,0.885c-0.659,0.141-1.315,0.309-1.951,0.519c-0.905,0.523-1.743,1.155-2.594,1.895
				c-0.463,0.406-0.956,0.592-1.534,0.749c-0.382,0.105-0.661,0.209-0.881,0.317c-0.159,0.117-0.32,0.229-0.478,0.345
				c-0.037,0.034-0.078,0.067-0.116,0.104c-0.257,0.304-0.376,0.667-0.801,1.147c-1.118,1.255-2.47,2.2-3.957,2.869
				c-1.983,1.632-3.972,3.254-5.997,4.846c-0.898,0.704-1.9,1.519-3.015,1.903c2.226-0.384,4.086-2.436,5.838-3.623
				c3.296-2.233,6.48-4.668,9.81-6.845c1.326-0.866,2.767-1.682,4.145-2.462c1.991-1.125,3.676-1.454,5.948-1.589
				c1.486-0.089,2.55-0.752,3.895-1.221c1.516-0.527,3.029-1.11,4.545-1.654c3.03-1.087,5.931-2.141,8.412-4.283
				C95.17,70.273,93.274,67.098,91.893,65.122z"/>
		</g>
		<g>
			<path style="fill:#DEE6EC;" d="M109.855,49.903c-0.065-0.112-0.14-0.219-0.215-0.32c-0.021-0.028-0.04-0.054-0.061-0.08
				c-0.068-0.087-0.138-0.168-0.212-0.247c-0.014-0.014-0.026-0.03-0.039-0.043c-0.093-0.095-0.189-0.181-0.287-0.263
				c-0.014-0.012-0.028-0.023-0.043-0.033c-0.092-0.075-0.188-0.143-0.288-0.206c-0.012-0.008-0.026-0.019-0.04-0.027
				c-0.229-0.142-0.475-0.256-0.731-0.338c-0.006-0.004-0.013-0.004-0.021-0.007c-0.705-0.225-1.5-0.218-2.291,0.104
				c-1.924,0.786-3.316,2.896-2.783,4.813l0,0l0,0c0.028,0.102,0.064,0.202,0.104,0.302c0.015,0.036,0.028,0.075,0.044,0.111
				c0.036,0.083,0.076,0.164,0.12,0.246c0.034,0.066,0.074,0.129,0.114,0.192c0.038,0.061,0.071,0.121,0.115,0.179
				c0.09,0.126,0.189,0.251,0.303,0.374c1.263,1.349,3.995,1.108,5.398,0.058c0.835-0.626,1.378-2.031,1.327-3.067
				C110.339,51.001,110.153,50.408,109.855,49.903z"/>
			<path style="fill:#DEE6EC;" d="M80.852,50.54c-0.018-0.025-0.038-0.049-0.055-0.072c-0.061-0.078-0.125-0.15-0.192-0.222
				c-0.014-0.014-0.026-0.029-0.037-0.041c-0.084-0.084-0.17-0.165-0.26-0.237c-0.013-0.012-0.025-0.02-0.039-0.03
				c-0.082-0.066-0.168-0.128-0.259-0.187c-0.012-0.008-0.023-0.015-0.037-0.024c-0.207-0.128-0.429-0.23-0.661-0.306
				c-0.006-0.003-0.012-0.004-0.016-0.007c-0.641-0.202-1.36-0.196-2.075,0.096c-1.739,0.709-3,2.619-2.517,4.354l0,0l0,0
				c0.026,0.092,0.058,0.18,0.092,0.27c0.014,0.034,0.028,0.07,0.043,0.104c0.032,0.075,0.067,0.149,0.107,0.221
				c0.032,0.061,0.067,0.118,0.106,0.177c0.034,0.053,0.064,0.107,0.102,0.158c0.082,0.116,0.172,0.229,0.275,0.339
				c1.144,1.22,3.615,1.003,4.881,0.053c0.758-0.568,1.249-1.837,1.204-2.776c-0.027-0.586-0.197-1.123-0.465-1.58
				C80.986,50.729,80.92,50.635,80.852,50.54z"/>
		</g>
		<g>
			<g>
				<g>
					<path style="fill:#512C0A;" d="M108.996,49.824c-0.831-1.413-2.54-2.147-4.231-1.459c-2.414,0.985-4.004,4.06-1.984,6.215
						c1.267,1.349,3.997,1.109,5.398,0.058c0.837-0.626,1.381-2.03,1.331-3.067C109.48,50.923,109.292,50.33,108.996,49.824z"/>
					<path style="fill:#331300;" d="M105.314,55.75L105.314,55.75c-1.137,0-2.098-0.357-2.706-1.007
						c-0.836-0.893-1.155-2.027-0.902-3.199c0.322-1.459,1.485-2.794,2.968-3.401c0.456-0.184,0.925-0.279,1.396-0.279
						c1.263,0,2.465,0.703,3.13,1.837c0.327,0.555,0.515,1.197,0.548,1.857c0.049,1.044-0.471,2.554-1.424,3.27
						C107.554,55.405,106.43,55.75,105.314,55.75z M106.07,48.342c-0.409,0-0.818,0.084-1.215,0.246
						c-1.342,0.547-2.395,1.748-2.681,3.06c-0.156,0.715-0.148,1.779,0.783,2.771c0.517,0.549,1.354,0.854,2.357,0.854
						c1.001,0,2.045-0.317,2.723-0.824c0.731-0.548,1.284-1.832,1.234-2.867c-0.028-0.582-0.194-1.147-0.481-1.637
						C108.207,48.956,107.166,48.342,106.07,48.342z"/>
				</g>
			</g>
			<g style="opacity:0.5;">
				<path style="fill:#512C0A;" d="M108.996,49.824c-0.587-0.998-1.614-1.656-2.763-1.714c0.486,0.237,0.927,0.566,1.266,0.967
					c1.379,1.622,0.973,4.052-1.186,4.777c-1.398,0.47-3.216,0.287-4.332-0.677c0.135,0.489,0.39,0.964,0.8,1.403
					c1.267,1.349,3.997,1.109,5.398,0.058c0.837-0.626,1.381-2.03,1.331-3.067C109.48,50.923,109.292,50.33,108.996,49.824z"/>
			</g>
		</g>
		<g>
			<g>
				<g>
					<path style="fill:#512C0A;" d="M80.187,50.752c-0.752-1.279-2.298-1.942-3.828-1.32c-2.182,0.891-3.622,3.673-1.794,5.622
						c1.145,1.222,3.614,1.003,4.883,0.052c0.755-0.564,1.247-1.836,1.201-2.774C80.621,51.746,80.455,51.209,80.187,50.752z"/>
					<path style="fill:#331300;" d="M76.857,56.137L76.857,56.137c-1.035,0-1.91-0.327-2.465-0.919
						c-0.763-0.812-1.053-1.847-0.821-2.914c0.291-1.328,1.349-2.542,2.697-3.091c0.414-0.17,0.841-0.254,1.27-0.254
						c1.151,0,2.245,0.641,2.853,1.671c0.297,0.508,0.469,1.091,0.497,1.691c0.048,0.952-0.425,2.326-1.297,2.977
						C78.893,55.821,77.87,56.137,76.857,56.137z M77.539,49.435c-0.367,0-0.733,0.075-1.091,0.22
						c-1.206,0.492-2.151,1.572-2.409,2.753c-0.141,0.641-0.132,1.593,0.702,2.484c0.464,0.495,1.213,0.766,2.116,0.766l0,0
						c0.899,0,1.837-0.283,2.449-0.74c0.653-0.492,1.15-1.647,1.107-2.573c-0.026-0.523-0.176-1.033-0.434-1.472
						C79.459,49.986,78.522,49.435,77.539,49.435z"/>
				</g>
			</g>
			<g style="opacity:0.5;">
				<path style="fill:#512C0A;" d="M80.187,50.752c-0.532-0.904-1.459-1.498-2.499-1.55c0.438,0.212,0.839,0.511,1.144,0.875
					c1.247,1.465,0.881,3.666-1.072,4.32c-1.267,0.425-2.91,0.261-3.921-0.611c0.124,0.441,0.355,0.872,0.725,1.269
					c1.145,1.222,3.614,1.003,4.883,0.052c0.755-0.564,1.247-1.836,1.201-2.774C80.621,51.746,80.455,51.209,80.187,50.752z"/>
			</g>
		</g>
	</g>
</g>
</svg>
